<svg width="22" height="18" viewBox="0 0 22 18" fill="none" xmlns="http://www.w3.org/2000/svg">
<g clip-path="url(#clip0_174_72)">
<path d="M2.16678 17.1176C1.72869 17.1176 1.34535 16.9477 1.01678 16.6078C0.688211 16.2679 0.523926 15.8867 0.523926 15.464V2.23529C0.523926 1.79433 0.688211 1.40849 1.01678 1.07777C1.34535 0.747055 1.72869 0.581696 2.16678 0.581696H19.6906C20.1287 0.581696 20.512 0.747055 20.8406 1.07777C21.1692 1.40849 21.3334 1.79433 21.3334 2.23529V15.464C21.3334 15.8867 21.1692 16.2679 20.8406 16.6078C20.512 16.9477 20.1287 17.1176 19.6906 17.1176H2.16678ZM10.4084 11.1647L2.16678 4.27472V15.464H19.6906V4.27472L11.4489 11.1647C11.3029 11.2933 11.1295 11.3576 10.9287 11.3576C10.7279 11.3576 10.5545 11.2933 10.4084 11.1647ZM10.9287 9.42843L19.5537 2.23529H2.30369L10.9287 9.42843Z" fill="#003566"/>
</g>
<defs>
<clipPath id="clip0_174_72">
<rect width="22" height="18" fill="white"/>
</clipPath>
</defs>
</svg>
