<svg width="73" height="72" viewBox="0 0 73 72" fill="none" xmlns="http://www.w3.org/2000/svg">
<path d="M26.2544 9.07877C25.4796 9.28215 24.5524 9.80332 23.9173 10.4135L23.3203 10.9855H14.353C4.62365 10.9855 4.68715 10.9855 3.27728 11.6973C2.37547 12.1549 1.25773 13.2608 0.775075 14.1506C-0.0378247 15.6887 0.000279953 14.7735 0.000279953 32.3406C0.000279953 49.9077 -0.0378247 48.9924 0.775075 50.5305C1.56257 51.9923 3.27728 53.2507 4.94119 53.5685C5.36034 53.6448 8.51032 53.6956 12.9686 53.6956H20.3228V59.7971H19.1034C17.4776 59.7971 16.9696 59.9623 16.1948 60.7504C15.3184 61.6148 15.2421 61.9453 15.2421 64.8689C15.2421 67.2841 15.2421 67.3095 15.5597 67.6146L15.8645 67.9324H30.484V69.6484C30.484 71.3136 30.4967 71.3899 30.8016 71.6822L31.1064 72H62.3776L62.6825 71.6822C62.9873 71.3899 63 71.3136 63 69.6738C63 66.4197 62.3141 63.9918 60.7264 61.5767C60.1167 60.636 58.6815 59.1361 57.6653 58.3734C56.5476 57.5218 54.6424 56.5938 53.3214 56.2379L52.2291 55.9456L52.9785 55.2591C53.7787 54.5092 54.7059 53.2126 55.1123 52.272L55.3537 51.7L56.1666 51.6364C59.3547 51.3695 61.0186 47.8103 59.1514 45.2172C58.6815 44.5562 57.8178 43.946 57.0684 43.7426L56.5222 43.6028V42.6876C56.5222 41.086 56.0395 39.3191 55.2394 38.0225L54.871 37.4251V27.0145C54.871 20.4681 54.8202 16.3624 54.744 15.9302C54.4265 14.265 53.169 12.549 51.7083 11.7609C50.2222 10.9728 50.3747 10.9855 40.4928 10.9855H31.5001L31.0429 10.477C30.7762 10.1847 30.1792 9.76518 29.6584 9.51096C28.8963 9.12962 28.5788 9.05335 27.7405 9.01521C27.1816 8.97708 26.5211 9.01521 26.2544 9.07877ZM28.3756 11.138C29.0741 11.3414 30.1284 12.3964 30.3316 13.0956C30.6872 14.2904 30.4332 15.2438 29.5314 16.1336C28.8836 16.7946 28.2358 17.0869 27.4356 17.0869C25.8606 17.0869 24.3873 15.6124 24.3873 14.0362C24.3873 13.2354 24.6794 12.5871 25.3399 11.9388C26.229 11.0363 27.1816 10.7948 28.3756 11.138ZM22.4185 15.0531H4.68715L4.38232 15.3709L4.06478 15.676V44.9375L4.38232 45.2426L4.68715 45.5604H32.5163V43.5266H28.4772L28.4264 41.2639C28.3629 38.8361 28.1977 38.1369 27.3975 36.7514C26.6227 35.4421 25.0223 34.2091 23.4092 33.6753L22.7361 33.4592L23.1171 33.0015C23.5998 32.3787 24.0951 31.2728 24.2603 30.4339C24.4508 29.4042 24.4127 26.6713 24.1967 25.8196C23.6252 23.6206 21.9359 21.9172 19.7512 21.3452C16.5631 20.519 13.2353 22.5401 12.3843 25.7942C12.1303 26.7984 12.1303 29.7347 12.3843 30.7262C12.6002 31.5906 13.0702 32.5312 13.5274 33.0778L13.845 33.4592L13.1845 33.6753C11.546 34.2091 9.9583 35.4294 9.18351 36.7514C8.38331 38.1369 8.21819 38.8361 8.15468 41.2639L8.10387 43.5266H6.09703V17.0869H23.3203L23.9427 17.6716C24.273 18.0021 24.9334 18.4343 25.3907 18.6631C26.1528 19.0191 26.3433 19.0572 27.4356 19.0572C28.528 19.0572 28.7185 19.0191 29.4806 18.6631C29.9378 18.4343 30.5983 18.0021 30.9286 17.6716L31.5509 17.0869H48.7743V34.3744H46.3356C43.4269 34.3744 42.5886 34.5269 41.1533 35.2642C40.4166 35.6582 39.9213 36.0396 39.2862 36.7133C37.8128 38.2641 37.1015 39.9928 36.9872 42.2681L36.9237 43.6155L36.3648 43.7681C36.0473 43.8443 35.5392 44.0859 35.2344 44.3019C32.5544 46.1451 33.1513 50.3526 36.2378 51.433C36.8729 51.6491 36.4283 51.6491 20.9578 51.6237L5.0174 51.5983L4.2172 51.1661C3.34079 50.6958 2.83273 50.1619 2.38817 49.2467L2.09604 48.6747V16.0065L2.41358 15.3709C2.95974 14.2777 4.00127 13.4133 5.14441 13.1337C5.36034 13.0828 9.32322 13.0447 13.972 13.032L22.4185 13.0193V15.0531ZM50.4255 13.3752C51.34 13.8201 51.8734 14.3286 52.3434 15.2056L52.7752 16.0065L52.8515 35.5057L52.0513 35.1498C51.6067 34.9464 51.1494 34.7557 51.0351 34.7049C50.8192 34.6413 50.8065 34.0693 50.8065 25.1586V15.676L50.489 15.3709L50.1841 15.0531H32.4528V13.0066L49.8539 13.0828L50.4255 13.3752ZM19.9544 23.557C20.8308 23.9765 21.377 24.4976 21.8597 25.3747L22.2915 26.1755V30.3703L21.8597 31.1711C21.377 32.0609 20.9706 32.455 20.0179 32.9507C19.4718 33.2304 19.205 33.2812 18.2905 33.2812C17.2998 33.2939 17.1474 33.2558 16.4107 32.8617C15.5343 32.3914 15.0262 31.8575 14.5817 30.9423C14.3149 30.4211 14.2895 30.1923 14.2895 28.2729C14.2895 26.3027 14.3022 26.1374 14.6071 25.54C15.1405 24.4468 16.1694 23.6079 17.3379 23.3028C17.9603 23.1375 19.3448 23.2774 19.9544 23.557ZM20.272 35.798C20.1831 36.2938 19.8782 36.7387 19.3829 37.0946C18.8875 37.4632 17.6935 37.4632 17.1982 37.0946C16.7028 36.7387 16.398 36.2938 16.3091 35.798L16.2329 35.3913H20.3609L20.272 35.798ZM14.3403 36.1794C15.0008 39.1666 18.2524 40.3868 20.7546 38.6073C21.4278 38.1369 22.0248 37.1455 22.2407 36.1794C22.3296 35.8235 22.4693 35.5184 22.5455 35.5184C22.6345 35.5184 23.1044 35.7218 23.5871 35.9633C24.6794 36.5099 25.4161 37.2726 25.9496 38.4166C26.3433 39.2555 26.356 39.3191 26.3941 41.391L26.4449 43.5266H24.3873V39.4589H22.355V43.5266H14.226V39.4589H12.1938V43.5266H10.1361L10.1869 41.391C10.225 39.3191 10.2377 39.2555 10.6315 38.4166C11.1649 37.2726 11.9016 36.5099 12.994 35.9633C13.4766 35.7218 13.9466 35.5184 14.0355 35.5184C14.1117 35.5184 14.2514 35.8235 14.3403 36.1794ZM50.7811 36.7514C52.3434 37.387 53.5246 38.6962 54.1343 40.4504C54.3756 41.175 54.4265 41.5436 54.4137 42.891C54.4137 44.2638 54.3629 44.6197 54.0708 45.4968C53.5881 46.9713 52.9277 47.9882 51.5813 49.3992L50.4001 50.6449H43.084L41.9027 49.3992C41.2422 48.7128 40.4928 47.7849 40.2261 47.3273C38.0795 43.6537 38.8543 38.925 41.9281 37.1327C43.0205 36.4972 43.6047 36.4082 46.996 36.4463C49.8412 36.4717 50.1714 36.4972 50.7811 36.7514ZM37.5842 48.001C37.5969 49.1704 37.5588 49.628 37.4445 49.628C37.3683 49.628 37.0507 49.5136 36.7586 49.3611C35.2852 48.6492 35.2725 46.5519 36.7459 45.8273L37.2793 45.5604L37.4318 45.9798C37.508 46.2087 37.5842 47.1112 37.5842 48.001ZM57.4367 46.3485C58.2877 47.34 57.9067 48.9416 56.6873 49.45C55.8871 49.7933 55.8871 49.7933 55.8871 48.0899C55.8871 47.2383 55.9506 46.3231 56.0268 46.0561L56.1793 45.5731L56.6365 45.7638C56.8906 45.8654 57.2462 46.1324 57.4367 46.3485ZM51.2257 52.6787L52.4323 51.4966C53.6898 50.2636 53.7533 50.2763 53.1563 51.611C52.7244 52.5898 51.9751 53.5177 51.124 54.166C49.6126 55.31 48.571 55.6659 46.742 55.6659C44.913 55.6659 43.8715 55.31 42.36 54.166C41.509 53.5177 40.7596 52.5898 40.3277 51.611C39.7308 50.2763 39.7943 50.2636 41.0517 51.4966L42.2584 52.6787H51.2257ZM32.5163 59.7971H22.355V53.6956H32.5163V59.7971ZM39.4132 54.0643C39.5275 54.2549 39.9848 54.7634 40.442 55.1829L41.2549 55.9456L40.2388 56.2252C38.4479 56.6955 36.3267 57.8395 35.0312 59.009L34.5485 59.4412V53.6956H39.1973L39.4132 54.0643ZM52.5847 58.1192C56.6111 59.2632 59.5452 62.1995 60.5994 66.1528C60.7391 66.6739 60.8915 67.7544 60.9296 68.5298L61.0059 69.9662H32.5163V69.0255C32.5163 64.4113 35.336 60.2547 39.6418 58.5387C41.3693 57.8395 42.1186 57.776 47.1231 57.8141C51.2765 57.8395 51.7083 57.865 52.5847 58.1192ZM32.4909 61.9199C32.4655 61.9834 32.1987 62.5046 31.9066 63.102C31.6018 63.6995 31.2461 64.5639 31.1064 65.0342L30.8397 65.8985H17.2744V64.1825C17.2744 62.5173 17.2871 62.4411 17.5919 62.1487L17.8968 61.8309H25.2129C29.2393 61.8309 32.5163 61.869 32.4909 61.9199Z" fill="url(#paint0_linear_238_51)"/>
<path d="M26.4195 15.0531H28.4518V13.0193H26.4195V15.0531Z" fill="url(#paint1_linear_238_51)"/>
<path d="M37.3807 20.9385C35.158 23.163 35.158 23.163 36.3519 24.4087L37.1394 25.2349L35.8438 26.5188L34.561 27.8153L33.7354 27.0272C32.4906 25.8323 32.4906 25.8323 30.2679 28.0568C27.88 30.4339 27.8927 30.1669 30.2044 32.4931C31.157 33.4719 32.1985 34.4252 32.516 34.6286C34.0783 35.6201 36.0344 35.6201 37.5967 34.6286C38.2952 34.1837 43.668 28.7687 44.0363 28.1458C44.6841 27.0526 44.8619 25.6544 44.5063 24.4468C44.2015 23.3918 43.7315 22.7562 41.8136 20.8622C39.4892 18.5614 39.7559 18.5487 37.3807 20.9385ZM41.0515 23.0231C42.1438 24.1417 42.4232 24.4977 42.5503 24.968C42.7154 25.6035 42.6519 26.4425 42.3724 26.9764C42.2708 27.167 40.8864 28.6161 39.286 30.1923C36.5297 32.9253 36.3519 33.0778 35.7295 33.2304C35.1961 33.3448 34.9166 33.3448 34.3959 33.2176C33.7989 33.0778 33.5703 32.9126 32.3255 31.6923L30.9283 30.3195L31.7158 29.5186L32.5033 28.7305L33.3289 29.5186C34.5991 30.7389 34.5102 30.7771 37.3045 27.9806C40.0989 25.1841 40.0608 25.273 38.8414 24.0019L38.0539 23.1757L38.8033 22.4257C39.2225 22.0062 39.5908 21.663 39.6289 21.663C39.6797 21.663 40.3148 22.2732 41.0515 23.0231Z" fill="url(#paint2_linear_238_51)"/>
<defs>
<linearGradient id="paint0_linear_238_51" x1="3.16496" y1="72.0872" x2="69.6424" y2="4.73191" gradientUnits="userSpaceOnUse">
<stop stop-color="#00B4BD"/>
<stop offset="1" stop-color="#003566"/>
</linearGradient>
<linearGradient id="paint1_linear_238_51" x1="3.16496" y1="72.0872" x2="69.6424" y2="4.73191" gradientUnits="userSpaceOnUse">
<stop stop-color="#00B4BD"/>
<stop offset="1" stop-color="#003566"/>
</linearGradient>
<linearGradient id="paint2_linear_238_51" x1="3.16496" y1="72.0872" x2="69.6424" y2="4.73191" gradientUnits="userSpaceOnUse">
<stop stop-color="#00B4BD"/>
<stop offset="1" stop-color="#003566"/>
</linearGradient>
</defs>
</svg>
