<svg width="73" height="72" viewBox="0 0 73 72" fill="none" xmlns="http://www.w3.org/2000/svg">
<path d="M10.8249 9.20024C9.69421 9.60688 8.85575 10.3947 8.41111 11.5257C8.19514 12.034 8.18244 12.7329 8.18244 20.0904V28.0961L8.51274 28.8077C8.93197 29.7099 9.61799 30.3961 10.52 30.8155L11.2314 31.1458L24.6976 31.2221L27.3654 34.005C28.8264 35.5426 30.173 36.8514 30.3635 36.9277C30.6303 37.0421 30.7955 37.0421 31.0623 36.9023C31.6848 36.61 31.7483 36.3177 31.7483 33.6746V31.2475L32.8916 31.1713C34.3907 31.0569 35.1275 30.7392 35.9279 29.8624C37.0077 28.6806 36.9696 29.0745 36.9315 19.8236L36.8934 11.7036L36.6012 11.1699C36.1565 10.3312 35.5976 9.77207 34.8226 9.39085L34.0985 9.03505L22.792 9.00963C12.1969 8.98422 11.4474 8.99692 10.8249 9.20024ZM33.9079 11.2334C34.1493 11.3478 34.4796 11.6401 34.6321 11.8815L34.9243 12.3135V20.0777C34.9243 27.5497 34.9116 27.8546 34.6702 28.2486C34.251 28.9475 33.7936 29.0873 31.8372 29.1762C30.2873 29.227 30.0587 29.2652 29.8935 29.4812C29.7665 29.6718 29.7156 30.1801 29.7156 31.5525C29.7156 32.5818 29.6648 33.3696 29.6013 33.3696C29.5378 33.3696 29.3599 33.2171 29.2075 33.0138C29.055 32.8232 28.1658 31.8829 27.213 30.9298L25.4979 29.1889L18.5616 29.1508C11.8412 29.1127 11.5998 29.1 11.1679 28.8585C10.9265 28.706 10.6216 28.4011 10.4692 28.1596C10.2151 27.7276 10.2151 27.537 10.2151 20.0015C10.2151 12.3771 10.2151 12.2881 10.4819 11.9323C10.6216 11.7417 10.9392 11.4494 11.1679 11.2842L11.5871 11.0047H22.5252C32.6884 11.0047 33.4887 11.0174 33.9079 11.2334Z" fill="url(#paint0_linear_238_47)"/>
<path d="M14.6233 14.2197C14.0517 14.8169 14.4074 15.7445 15.2585 15.897C15.4872 15.9351 18.9554 15.9606 22.9571 15.9351L30.2492 15.897L30.5541 15.5412C30.9225 15.1092 30.9479 14.7025 30.5922 14.2578L30.3381 13.9274H14.8901L14.6233 14.2197Z" fill="url(#paint1_linear_238_47)"/>
<path d="M14.9155 19.1628C14.2676 19.5059 14.1406 20.2938 14.636 20.7639L14.9282 21.0435H30.2365L30.5414 20.7258C30.9606 20.3065 30.9479 19.8363 30.4906 19.3788L30.1222 19.0103H22.6395C17.4817 19.023 15.0934 19.0612 14.9155 19.1628Z" fill="url(#paint2_linear_238_47)"/>
<path d="M14.6615 24.538C14.4582 24.7286 14.3439 24.9955 14.3439 25.2369C14.3439 25.4784 14.4582 25.7452 14.6615 25.9358L14.9664 26.2535H30.2365L30.5414 25.9358C30.7447 25.7452 30.859 25.4784 30.859 25.2369C30.859 24.9955 30.7447 24.7286 30.5414 24.538L30.2365 24.2203H14.9664L14.6615 24.538Z" fill="url(#paint3_linear_238_47)"/>
<path d="M47.4377 16.8755C46.2816 17.0915 44.9858 17.8158 43.9949 18.807C42.5466 20.2556 41.9114 21.7932 41.9114 23.8391C41.9114 25.7198 42.5339 27.2193 43.8933 28.6679C44.3633 29.1508 44.6682 29.5574 44.592 29.5574C44.2998 29.5574 42.5975 30.4088 41.6574 31.0315C39.7264 32.3022 37.8716 34.5641 36.9696 36.7625L36.5377 37.7918L35.9533 37.8553C35.5341 37.9062 35.2927 38.0078 35.0767 38.262C34.7845 38.6051 34.7845 38.6559 34.8226 40.8161C34.8734 43.5101 34.8226 43.4466 36.4233 43.5355L37.5286 43.5991L37.5667 45.7847L37.5921 47.9704L37.9351 48.2245C38.2527 48.4914 38.3543 48.4914 48.9113 48.4914H59.5572L60.2687 47.8814L60.3449 43.5355H61.3612C62.2759 43.5355 62.4029 43.4974 62.6824 43.2178C63 42.9129 63 42.8747 63 40.7526C63 38.694 62.9873 38.5797 62.7078 38.262C62.4918 38.0078 62.2632 37.9062 61.8312 37.8553C61.2723 37.7918 61.2214 37.7537 61.0817 37.3216C60.853 36.6354 60.1035 35.1741 59.5699 34.3862C58.8077 33.2807 57.8676 32.3022 56.737 31.4508C55.746 30.7011 53.6372 29.5574 53.2434 29.5574C53.1417 29.5574 53.345 29.2779 53.7007 28.9348C55.1871 27.5115 55.9366 25.7579 55.9366 23.7756C55.9239 19.2772 51.9095 16.0241 47.4377 16.8755ZM50.4485 19.023C53.3704 20.0015 54.717 23.1402 53.4212 25.9231C52.9512 26.9524 52.1889 27.7149 51.0837 28.2486C50.169 28.706 50.0547 28.7315 48.9113 28.7315C47.8061 28.7315 47.6155 28.6933 46.8279 28.3248C45.7861 27.8292 44.8715 26.927 44.3633 25.9104C44.033 25.2369 44.0076 25.059 44.0076 23.7756C44.0076 22.4921 44.033 22.3142 44.376 21.6153C45.494 19.3534 48.111 18.2352 50.4485 19.023ZM50.5501 30.9552C54.0818 31.5144 57.0418 33.6873 58.6807 36.915C58.9093 37.347 59.0618 37.7283 59.0364 37.7664C58.9983 37.7918 54.4121 37.8045 48.8478 37.7918L38.71 37.7537L39.2182 36.7752C41.3779 32.5945 45.9767 30.2436 50.5501 30.9552ZM60.9674 41.5023H36.8299V39.8504H60.9674V41.5023ZM58.3122 46.4582H39.6247V43.5355L48.9367 43.5609L58.236 43.5991L58.3122 46.4582Z" fill="url(#paint4_linear_238_47)"/>
<path d="M9.07172 51.592C7.3948 52.1257 6.09899 53.2439 5.36216 54.8069C4.94293 55.671 4.87941 55.9252 4.8413 56.9672C4.80319 57.6915 4.85401 58.3904 4.94293 58.7589C5.1716 59.6103 5.78139 60.7159 6.35307 61.3385C6.63256 61.6308 6.84853 61.8849 6.84853 61.8977C6.84853 61.9104 6.4293 62.1264 5.93384 62.3805C4.09177 63.2955 2.46566 64.8076 1.39853 66.5867C0.85226 67.5016 0.153542 69.5475 0.0392067 70.5641C-0.037017 71.2884 -0.0243131 71.3646 0.280582 71.6696L0.610885 72H55.3903L55.7206 71.6696C56.0255 71.3646 56.0382 71.2884 55.9493 70.5641C55.835 69.4712 55.2125 67.6287 54.6535 66.6756C53.5356 64.8076 52.0619 63.4098 50.2071 62.4568L49.1781 61.9231L49.7625 61.2115C50.0801 60.8175 50.512 60.1313 50.728 59.6739C51.0964 58.8987 51.1218 58.7589 51.1218 57.323C51.1218 55.8362 51.1091 55.7727 50.6645 54.8451C49.8768 53.2185 48.7716 52.2274 47.1074 51.6682C46.434 51.4395 46.0783 51.4014 45.0239 51.4395C43.8678 51.4776 43.6646 51.5284 42.7626 51.9478C41.4541 52.5705 40.5267 53.4981 39.9169 54.7815C39.5231 55.6202 39.4469 55.9125 39.3961 56.9418C39.3071 58.7208 39.828 60.1822 40.9968 61.4402C41.2254 61.6689 41.4033 61.8849 41.4033 61.8977C41.4033 61.9231 41.0984 62.0883 40.7173 62.2535C39.6247 62.7618 38.4941 63.575 37.5032 64.5789L36.6012 65.5065L36.1184 64.922C35.4451 64.096 33.9461 62.9397 32.8408 62.3932L31.9007 61.9358L32.4597 61.2369C33.5776 59.8645 33.9588 58.7208 33.8825 56.9672C33.8444 55.9379 33.7809 55.671 33.3744 54.8451C32.5994 53.2185 31.4942 52.2274 29.83 51.6682C29.1567 51.4395 28.801 51.4014 27.7465 51.4395C26.5905 51.4776 26.3872 51.5284 25.4852 51.9478C23.4907 52.9008 22.233 54.7307 22.1187 56.8528C22.017 58.6446 22.5125 60.0932 23.6177 61.3131C23.8972 61.6181 24.1259 61.8849 24.1259 61.9104C24.1259 61.9231 23.821 62.0883 23.4399 62.2535C22.3474 62.7618 21.2167 63.575 20.2258 64.5789L19.3238 65.5065L18.8411 64.922C18.1677 64.096 16.6687 62.9397 15.5634 62.3932L14.6233 61.9358L15.1823 61.2369C16.3003 59.8645 16.6814 58.7208 16.6052 56.9672C16.5671 55.9379 16.5035 55.671 16.097 54.8451C15.3221 53.2312 14.2168 52.2274 12.5907 51.6809C11.6887 51.376 9.89747 51.3251 9.07172 51.592ZM12.1334 53.6633C12.9845 53.9556 14.0898 55.0611 14.382 55.9125C15.284 58.5429 13.4419 61.1987 10.7232 61.1987C8.56356 61.1987 6.84853 59.5087 6.84853 57.3738C6.84853 56.9164 6.95016 56.2556 7.06449 55.9125C7.34398 55.0992 8.46193 53.9556 9.26228 53.6633C10.0245 53.3964 11.3584 53.3964 12.1334 53.6633ZM29.4107 53.6633C30.2619 53.9556 31.3672 55.0611 31.6593 55.9125C32.0024 56.9164 31.9388 58.0727 31.5069 58.975C31.0623 59.9153 30.516 60.449 29.5378 60.8938C28.8899 61.186 28.6866 61.2242 27.8228 61.1733C26.2602 61.0844 25.193 60.3855 24.507 59.0131C24.2021 58.3777 24.1259 58.0727 24.1259 57.3865C24.1259 56.9291 24.2275 56.2556 24.3419 55.9125C24.6214 55.0992 25.7393 53.9556 26.5397 53.6633C27.3019 53.3964 28.6358 53.3964 29.4107 53.6633ZM46.6881 53.6633C47.1074 53.8031 47.5393 54.0953 48.022 54.5782C48.9113 55.4804 49.2035 56.2429 49.1273 57.5517C49.0511 59.0893 48.2507 60.2457 46.8279 60.8811C46.1546 61.186 45.9513 61.2242 45.1001 61.1733C43.5503 61.0844 42.4704 60.3855 41.7844 59.0131C40.7935 57.018 41.7463 54.5274 43.817 53.6887C44.5539 53.3964 45.8624 53.3837 46.6881 53.6633ZM12.9337 63.5623C14.7123 64.0071 16.8084 65.443 17.7866 66.8789L18.1805 67.4381L17.7612 68.7088L17.3547 69.9668H2.24969L2.32592 69.5475C2.37673 69.3315 2.64352 68.658 2.93571 68.0607C3.90121 66.1038 5.92114 64.3883 8.08081 63.6894C9.50365 63.2192 11.4092 63.1811 12.9337 63.5623ZM30.1984 63.5623C31.9769 64.0071 34.1112 65.4557 35.1021 66.9043L35.4705 67.4254L35.1148 68.5436C34.9116 69.1536 34.7337 69.7254 34.721 69.8016C34.6829 69.9287 33.0568 69.9668 27.0986 69.9668H19.5271L19.6033 69.5475C19.6541 69.3315 19.9209 68.658 20.2131 68.0607C21.1786 66.1165 23.1985 64.3883 25.3328 63.6894C26.7937 63.2192 28.6612 63.1684 30.1984 63.5623ZM47.5012 63.5623C47.8823 63.664 48.6826 63.9817 49.2797 64.2739C50.7915 65.011 52.3033 66.5231 53.0655 68.0607C53.3577 68.658 53.6245 69.3315 53.6753 69.5475L53.7642 69.9668H45.2907C35.623 69.9668 36.5885 70.1193 37.1856 68.6961C38.4051 65.8496 40.9968 63.8292 44.0076 63.3717C44.9223 63.2319 46.5357 63.3209 47.5012 63.5623Z" fill="url(#paint5_linear_238_47)"/>
<defs>
<linearGradient id="paint0_linear_238_47" x1="-0.0989137" y1="72.0871" x2="82.1547" y2="0.0764133" gradientUnits="userSpaceOnUse">
<stop stop-color="#00B4BD"/>
<stop offset="1" stop-color="#003566"/>
</linearGradient>
<linearGradient id="paint1_linear_238_47" x1="-0.0989137" y1="72.0871" x2="82.1547" y2="0.0764133" gradientUnits="userSpaceOnUse">
<stop stop-color="#00B4BD"/>
<stop offset="1" stop-color="#003566"/>
</linearGradient>
<linearGradient id="paint2_linear_238_47" x1="-0.0989137" y1="72.0871" x2="82.1547" y2="0.0764133" gradientUnits="userSpaceOnUse">
<stop stop-color="#00B4BD"/>
<stop offset="1" stop-color="#003566"/>
</linearGradient>
<linearGradient id="paint3_linear_238_47" x1="-0.0989137" y1="72.0871" x2="82.1547" y2="0.0764133" gradientUnits="userSpaceOnUse">
<stop stop-color="#00B4BD"/>
<stop offset="1" stop-color="#003566"/>
</linearGradient>
<linearGradient id="paint4_linear_238_47" x1="-0.0989137" y1="72.0871" x2="82.1547" y2="0.0764133" gradientUnits="userSpaceOnUse">
<stop stop-color="#00B4BD"/>
<stop offset="1" stop-color="#003566"/>
</linearGradient>
<linearGradient id="paint5_linear_238_47" x1="-0.0989137" y1="72.0871" x2="82.1547" y2="0.0764133" gradientUnits="userSpaceOnUse">
<stop stop-color="#00B4BD"/>
<stop offset="1" stop-color="#003566"/>
</linearGradient>
</defs>
</svg>
