<svg width="14" height="22" viewBox="0 0 14 22" fill="none" xmlns="http://www.w3.org/2000/svg">
<g clip-path="url(#clip0_174_70)">
<path d="M1.729 21.6845C1.34567 21.6845 1.01025 21.5408 0.722754 21.2533C0.435254 20.9658 0.291504 20.6303 0.291504 20.247V2.03868C0.291504 1.65535 0.435254 1.31993 0.722754 1.03243C1.01025 0.744931 1.34567 0.601181 1.729 0.601181H12.2707C12.654 0.601181 12.9894 0.744931 13.2769 1.03243C13.5644 1.31993 13.7082 1.65535 13.7082 2.03868V20.247C13.7082 20.6303 13.5644 20.9658 13.2769 21.2533C12.9894 21.5408 12.654 21.6845 12.2707 21.6845H1.729ZM1.729 18.0908V20.247H12.2707V18.0908H1.729ZM7.00415 19.8876C7.2089 19.8876 7.37919 19.8183 7.51494 19.6797C7.65069 19.5412 7.71859 19.3695 7.71859 19.1646C7.71859 18.9598 7.64925 18.7895 7.51063 18.6538C7.37215 18.518 7.20047 18.4501 6.99553 18.4501C6.79078 18.4501 6.62048 18.5195 6.48473 18.6581C6.34899 18.7966 6.28109 18.9683 6.28109 19.1732C6.28109 19.3779 6.35042 19.5482 6.48905 19.684C6.62753 19.8197 6.79921 19.8876 7.00415 19.8876ZM1.729 16.6533H12.2707V4.19493H1.729V16.6533ZM1.729 2.75743H12.2707V2.03868H1.729V2.75743Z" fill="#003566"/>
</g>
<defs>
<clipPath id="clip0_174_70">
<rect width="14" height="22" fill="white"/>
</clipPath>
</defs>
</svg>
