<svg width="73" height="72" viewBox="0 0 73 72" fill="none" xmlns="http://www.w3.org/2000/svg">
<path d="M30.6066 9.35158C30.2974 9.64691 30.2553 9.81567 30.2553 10.6876C30.2553 11.5595 30.2974 11.7283 30.6066 12.0236C30.8173 12.2486 31.1124 12.3752 31.3794 12.3752C31.8431 12.3752 32.5035 11.8408 32.5035 11.4611C32.5035 11.2783 33.9227 11.2501 45.993 11.2501H59.4824V27.001H57.0234C54.5925 27.001 54.5504 27.001 54.2131 27.3526C53.8759 27.676 53.8618 27.7745 53.8618 29.3496V30.995L51.8525 28.998L49.829 27.001H48.2553C46.7658 27.001 46.6674 27.0151 46.3443 27.3526C45.8806 27.8026 45.8806 28.4495 46.3443 28.8995C46.6393 29.2089 46.808 29.2511 47.7775 29.2511H48.8595L51.6838 32.0638C54.1991 34.5671 54.5644 34.8764 54.9719 34.8764C55.267 34.8764 55.534 34.7499 55.7588 34.5249C56.1101 34.1873 56.1101 34.1452 56.1101 31.7122V29.2511H58.5691C61 29.2511 61.0422 29.2511 61.3794 28.8995L61.7307 28.562V9.6891L61.3794 9.35158L61.0422 9H30.9438L30.6066 9.35158Z" fill="url(#paint0_linear_238_45)"/>
<path d="M12.6206 14.9769L12.2693 15.3144V34.1873L12.6206 34.5249C12.9578 34.8764 13 34.8764 15.4309 34.8764H17.8899V37.3375C17.8899 39.7705 17.8899 39.8127 18.2412 40.1502C18.466 40.3752 18.733 40.5018 19.0281 40.5018C19.4356 40.5018 19.8009 40.1924 22.3162 37.6891L25.1405 34.8764H43.0562L43.3934 34.5249L43.7447 34.1873V15.3144L43.3934 14.9769L43.0562 14.6253H20.8267L20.4895 14.9769C20.2646 15.1878 20.1382 15.4832 20.1382 15.7504C20.1382 16.0176 20.2646 16.3129 20.4895 16.5239L20.8267 16.8754H41.4965V32.6263H24.171L22.1475 34.6233L20.1382 36.6203V34.9749C20.1382 33.3998 20.1241 33.3014 19.7869 32.9779C19.4497 32.6263 19.4075 32.6263 16.9766 32.6263H14.5176V16.8754H16.4145C18.2553 16.8754 18.3396 16.8614 18.6628 16.5239C18.8876 16.3129 19.0141 16.0176 19.0141 15.7504C19.0141 15.4832 18.8876 15.1878 18.6628 14.9769C18.3255 14.6253 18.2974 14.6253 15.6417 14.6253C12.9859 14.6253 12.9578 14.6253 12.6206 14.9769Z" fill="url(#paint1_linear_238_45)"/>
<path d="M21.6136 23.9774C20.911 24.6665 21.4028 25.8759 22.3864 25.8759C22.9625 25.8759 23.5105 25.3275 23.5105 24.7509C23.5105 24.1743 22.9625 23.6258 22.3864 23.6258C22.1194 23.6258 21.8244 23.7524 21.6136 23.9774Z" fill="url(#paint2_linear_238_45)"/>
<path d="M27.2342 23.9774C26.5316 24.6665 27.0234 25.8759 28.007 25.8759C28.5831 25.8759 29.1311 25.3275 29.1311 24.7509C29.1311 24.1743 28.5831 23.6258 28.007 23.6258C27.74 23.6258 27.445 23.7524 27.2342 23.9774Z" fill="url(#paint3_linear_238_45)"/>
<path d="M32.8548 23.9774C32.1522 24.6665 32.644 25.8759 33.6276 25.8759C34.2037 25.8759 34.7518 25.3275 34.7518 24.7509C34.7518 24.1743 34.2037 23.6258 33.6276 23.6258C33.3607 23.6258 33.0656 23.7524 32.8548 23.9774Z" fill="url(#paint4_linear_238_45)"/>
<path d="M14.0258 40.6705C12.7752 40.8955 11.1593 41.7956 10.1194 42.8222C9.03747 43.891 8.18033 45.4942 7.9274 46.8865C7.73068 47.9694 7.73068 51.0352 7.9274 52.118C8.16628 53.4822 9.02342 55.0713 10.0773 56.1401C11.6792 57.7433 13.3513 58.4324 15.6417 58.4324C17.2576 58.4324 18.0304 58.2356 19.4637 57.4902C20.9953 56.6745 22.4567 54.9307 23.089 53.1165C23.4824 52.0337 23.637 48.546 23.3841 47.0131C22.6393 42.7097 18.4098 39.8408 14.0258 40.6705ZM17.9461 43.2863C19.2248 43.8769 20.0398 44.6926 20.6721 45.9583L21.192 47.0271V51.9774L20.6721 53.0462C20.0398 54.326 19.2248 55.1135 17.918 55.7323C17.0609 56.1401 16.8501 56.1823 15.6417 56.1823C14.4333 56.1823 14.2225 56.1401 13.3653 55.7323C12.0585 55.1135 11.2436 54.326 10.6112 53.0462L10.0913 51.9774V47.0412L10.541 46.0989C11.103 44.9036 11.904 44.0316 12.9578 43.4832C14.0539 42.8925 14.6721 42.7519 15.9508 42.8081C16.808 42.8503 17.2436 42.9628 17.9461 43.2863Z" fill="url(#paint5_linear_238_45)"/>
<path d="M35.3841 40.6705C35.0047 40.7408 34.1756 41.0502 33.5433 41.3456C31.9836 42.105 30.733 43.3425 29.9883 44.9036C29.2998 46.338 29.1311 47.2381 29.1311 49.5023C29.1311 51.7664 29.2998 52.6665 29.9742 54.0869C30.8876 55.9995 32.5738 57.434 34.7518 58.1652C35.3138 58.3621 35.9321 58.4324 37 58.4324C38.6159 58.4324 39.3888 58.2356 40.822 57.4902C42.3536 56.6745 43.815 54.9307 44.4473 53.1165C44.8407 52.0337 44.9953 48.546 44.7424 47.0131C43.9977 42.7097 39.7682 39.8408 35.3841 40.6705ZM39.3044 43.2863C40.5831 43.8769 41.3981 44.6926 42.0304 45.9583L42.5504 47.0271V51.9774L42.0304 53.0462C41.3981 54.326 40.5831 55.1135 39.2763 55.7323C38.4192 56.1401 38.2084 56.1823 37 56.1823C35.7916 56.1823 35.5808 56.1401 34.7237 55.7323C33.4169 55.1135 32.6019 54.326 31.9696 53.0462L31.4496 51.9774V47.0412L31.8993 46.0989C32.4614 44.9036 33.2623 44.0316 34.3162 43.4832C35.4122 42.8925 36.0304 42.7519 37.3091 42.8081C38.1663 42.8503 38.6019 42.9628 39.3044 43.2863Z" fill="url(#paint6_linear_238_45)"/>
<path d="M56.7424 40.6705C56.363 40.7408 55.534 41.0502 54.9016 41.3456C53.3419 42.105 52.0913 43.3425 51.3466 44.9036C50.6581 46.338 50.4895 47.2381 50.4895 49.5023C50.4895 51.7664 50.6581 52.6665 51.3326 54.0869C52.2459 55.9995 53.9321 57.434 56.1101 58.1652C56.6721 58.3621 57.2904 58.4324 58.3583 58.4324C59.9742 58.4324 60.7471 58.2356 62.1803 57.4902C63.7119 56.6745 65.1733 54.9307 65.8056 53.1165C66.1991 52.0337 66.3536 48.546 66.1007 47.0131C65.356 42.7097 61.1265 39.8408 56.7424 40.6705ZM60.6628 43.2863C61.9415 43.8769 62.7564 44.6926 63.3888 45.9583L63.9087 47.0271V51.9774L63.3888 53.0462C62.7564 54.326 61.9415 55.1135 60.6347 55.7323C59.7775 56.1401 59.5667 56.1823 58.3583 56.1823C57.1499 56.1823 56.9391 56.1401 56.082 55.7323C54.7752 55.1135 53.9602 54.326 53.3279 53.0462L52.808 51.9774V47.0412L53.2576 46.0989C53.8197 44.9036 54.6206 44.0316 55.6745 43.4832C56.7705 42.8925 57.3888 42.7519 58.6674 42.8081C59.5246 42.8503 59.9602 42.9628 60.6628 43.2863Z" fill="url(#paint7_linear_238_45)"/>
<path d="M11.7073 59.7122C10.2459 59.8388 7.47775 60.2325 6.22717 60.4857C3.76815 60.992 2.53162 61.8498 1.63232 63.6781L1.09836 64.7469L1.05621 68.0236L1 71.2863L1.36534 71.6519C1.82904 72.116 2.47541 72.116 2.92506 71.6519C3.27635 71.3144 3.27635 71.3004 3.27635 68.4736C3.27635 65.2953 3.36066 64.8312 4.09133 63.9874C4.86417 63.0874 5.41218 62.8764 8.40515 62.3842C11.3981 61.878 16.0913 61.7373 19.6323 62.0186C20.9672 62.1311 21.4871 62.1311 21.726 62.0045C22.1616 61.7654 22.3724 61.442 22.3864 61.0201C22.3864 60.4294 21.9649 60.0216 21.178 59.895C20.4473 59.7685 12.7752 59.6138 11.7073 59.7122Z" fill="url(#paint8_linear_238_45)"/>
<path d="M33.0656 59.7122C31.6323 59.8388 28.8361 60.2325 27.5855 60.4857C25.1265 60.992 23.8899 61.8498 22.9906 63.6781L22.4567 64.7469L22.4145 68.0236L22.3583 71.2863L22.7237 71.6519C23.1874 72.116 23.8337 72.116 24.2834 71.6519C24.6347 71.3144 24.6347 71.3004 24.6347 68.4736C24.6347 65.2953 24.719 64.8312 25.4496 63.9874C26.2225 63.0874 26.7705 62.8764 29.7635 62.3842C32.7424 61.878 37.815 61.7233 41.2857 62.0186C43.6042 62.2295 46.8782 62.8061 47.5246 63.1436C48.2272 63.4952 49 64.3953 49.1967 65.0984C49.3091 65.4219 49.3653 66.7298 49.3653 68.4736C49.3653 71.3004 49.3653 71.3144 49.7166 71.6519C50.1663 72.116 50.8126 72.116 51.2763 71.6519L51.6417 71.2863L51.5855 68.0236L51.5433 64.7469L51.0094 63.6781C50.1522 61.9201 48.8454 60.9779 46.6674 60.5279C43.7728 59.9232 41.8899 59.7544 37.7728 59.6981C35.5386 59.6841 33.4169 59.6841 33.0656 59.7122Z" fill="url(#paint9_linear_238_45)"/>
<path d="M53.9461 59.7825C53.0047 59.8528 52.2881 59.9794 52.0913 60.12C51.4309 60.556 51.4871 61.5826 52.1756 61.9483C52.541 62.1311 52.8501 62.1452 54.3677 62.0186C58.3021 61.7092 62.6862 61.878 66.3396 62.5108C68.5878 62.9046 69.2061 63.1577 69.9087 63.9874C70.6393 64.8312 70.7237 65.2953 70.7237 68.4736C70.7237 71.3004 70.7237 71.3144 71.0749 71.6519C71.5246 72.116 72.171 72.116 72.6347 71.6519L73 71.2863L72.9438 68.0236L72.9016 64.7469L72.3677 63.6781C71.5105 61.9201 70.2459 61.006 68.0539 60.5419C65.2436 59.9372 63.2482 59.7544 59.3419 59.6981C57.2201 59.67 54.7892 59.7122 53.9461 59.7825Z" fill="url(#paint10_linear_238_45)"/>
<defs>
<linearGradient id="paint0_linear_238_45" x1="7.19471" y1="72.3892" x2="77.1476" y2="-5.21401" gradientUnits="userSpaceOnUse">
<stop stop-color="#00B4BD"/>
<stop offset="1" stop-color="#003566"/>
</linearGradient>
<linearGradient id="paint1_linear_238_45" x1="7.19471" y1="72.3892" x2="77.1476" y2="-5.21401" gradientUnits="userSpaceOnUse">
<stop stop-color="#00B4BD"/>
<stop offset="1" stop-color="#003566"/>
</linearGradient>
<linearGradient id="paint2_linear_238_45" x1="7.19471" y1="72.3892" x2="77.1476" y2="-5.21401" gradientUnits="userSpaceOnUse">
<stop stop-color="#00B4BD"/>
<stop offset="1" stop-color="#003566"/>
</linearGradient>
<linearGradient id="paint3_linear_238_45" x1="7.19471" y1="72.3892" x2="77.1476" y2="-5.21401" gradientUnits="userSpaceOnUse">
<stop stop-color="#00B4BD"/>
<stop offset="1" stop-color="#003566"/>
</linearGradient>
<linearGradient id="paint4_linear_238_45" x1="7.19471" y1="72.3892" x2="77.1476" y2="-5.21401" gradientUnits="userSpaceOnUse">
<stop stop-color="#00B4BD"/>
<stop offset="1" stop-color="#003566"/>
</linearGradient>
<linearGradient id="paint5_linear_238_45" x1="7.19471" y1="72.3892" x2="77.1476" y2="-5.21401" gradientUnits="userSpaceOnUse">
<stop stop-color="#00B4BD"/>
<stop offset="1" stop-color="#003566"/>
</linearGradient>
<linearGradient id="paint6_linear_238_45" x1="7.19471" y1="72.3892" x2="77.1476" y2="-5.21401" gradientUnits="userSpaceOnUse">
<stop stop-color="#00B4BD"/>
<stop offset="1" stop-color="#003566"/>
</linearGradient>
<linearGradient id="paint7_linear_238_45" x1="7.19471" y1="72.3892" x2="77.1476" y2="-5.21401" gradientUnits="userSpaceOnUse">
<stop stop-color="#00B4BD"/>
<stop offset="1" stop-color="#003566"/>
</linearGradient>
<linearGradient id="paint8_linear_238_45" x1="7.19471" y1="72.3892" x2="77.1476" y2="-5.21401" gradientUnits="userSpaceOnUse">
<stop stop-color="#00B4BD"/>
<stop offset="1" stop-color="#003566"/>
</linearGradient>
<linearGradient id="paint9_linear_238_45" x1="7.19471" y1="72.3892" x2="77.1476" y2="-5.21401" gradientUnits="userSpaceOnUse">
<stop stop-color="#00B4BD"/>
<stop offset="1" stop-color="#003566"/>
</linearGradient>
<linearGradient id="paint10_linear_238_45" x1="7.19471" y1="72.3892" x2="77.1476" y2="-5.21401" gradientUnits="userSpaceOnUse">
<stop stop-color="#00B4BD"/>
<stop offset="1" stop-color="#003566"/>
</linearGradient>
</defs>
</svg>
