<svg width="34" height="30" viewBox="0 0 34 30" fill="none" xmlns="http://www.w3.org/2000/svg">
<g clip-path="url(#clip0_174_144)">
<path d="M18.4228 0.652242C15.667 0.984971 13.2708 2.50813 11.8929 4.80026C11.7356 5.05905 11.5859 5.31044 11.5559 5.3622C11.5035 5.44354 11.3762 5.44354 10.852 5.37699C9.47416 5.19214 7.98397 5.62839 6.89816 6.52306C5.75993 7.46949 5.11593 8.74864 5.03356 10.2348L4.99611 10.989L4.61421 11.1073C3.10156 11.5953 1.85849 12.8079 1.32682 14.3163C1.03477 15.137 0.967375 16.2387 1.15458 17.0743C1.49156 18.5752 2.53993 19.8914 3.91779 20.5568C5.01858 21.0892 4.89877 21.0744 9.54904 21.104C12.5219 21.1262 13.8249 21.1114 14.0271 21.0522C14.2143 21.0005 14.3641 20.8895 14.4539 20.7343C14.6336 20.4459 14.6411 20.2315 14.4839 19.9357C14.2592 19.4995 14.2592 19.4995 9.74374 19.4995C5.87225 19.4995 5.60267 19.4921 5.16086 19.3516C2.9443 18.6787 1.94835 16.1056 3.14649 14.1462C3.67067 13.2885 4.67411 12.6379 5.72997 12.4752C6.66602 12.3273 6.86072 12.0537 6.69597 11.1443C6.53123 10.2644 6.68849 9.36234 7.15276 8.59337C7.55714 7.90573 8.55309 7.19591 9.36932 7.01106C9.86355 6.90015 10.6948 6.91494 11.159 7.04803C12.2299 7.35858 12.4171 7.28464 12.8215 6.41954C13.8324 4.23832 15.6371 2.80389 18.0109 2.3011C18.7148 2.14582 20.1001 2.15322 20.8565 2.30849C23.0655 2.75952 24.9376 4.23832 25.9111 6.29384C26.3979 7.30682 26.5401 7.98706 26.5401 9.22186C26.5476 10.1609 26.5177 10.3901 26.338 11.0777C26.1358 11.8171 26.1358 11.8763 26.2406 12.1351C26.4053 12.527 26.7723 12.6674 27.289 12.5418C27.4986 12.49 27.9405 12.453 28.27 12.453C29.2809 12.4752 30.1346 12.8597 30.831 13.6139C32.3062 15.2036 31.9767 17.7545 30.1495 18.9227C29.2359 19.5069 29.2884 19.4995 24.4434 19.4995C19.7257 19.4995 19.7407 19.4995 19.5161 19.9357C19.3588 20.2315 19.3663 20.4459 19.546 20.7343C19.6359 20.8895 19.7856 21.0005 19.9728 21.0522C20.175 21.1114 21.5379 21.1262 24.6381 21.1114C29.543 21.0818 29.3633 21.0966 30.5539 20.5198C31.4525 20.0836 32.3436 19.2037 32.7854 18.3164C32.9577 17.9689 33.1599 17.4735 33.2272 17.2073C33.377 16.6232 33.3995 15.4106 33.2572 14.8413C33.1149 14.2572 32.6581 13.3255 32.2538 12.8005C31.4375 11.7432 29.9998 10.9816 28.6144 10.8707L28.0303 10.8263L28.1052 10.4123C28.21 9.75422 28.1202 7.95009 27.9405 7.24767C27.244 4.49711 25.3195 2.2937 22.6761 1.22158C21.4855 0.740969 19.6808 0.496968 18.4228 0.652242Z" fill="#D1D5DB"/>
<path d="M16.5659 11.0112C16.4386 11.1073 15.5624 12.0981 14.6189 13.2146C12.1028 16.2091 12.2077 16.076 12.2077 16.3274C12.2077 16.601 12.3874 16.9559 12.5746 17.0594C12.7543 17.1482 13.2261 17.1556 13.3983 17.0668C13.4657 17.0299 14.1097 16.2979 14.8286 15.4475L16.139 13.8948L16.1765 21.1483C16.2064 26.7899 16.2364 28.4461 16.3113 28.5718C16.6108 29.0968 17.3896 29.0968 17.6891 28.5718C17.764 28.4461 17.794 26.7899 17.8239 21.1483L17.8614 13.8948L19.1718 15.4475C19.8907 16.2979 20.5347 17.0299 20.6021 17.0668C20.7743 17.1556 21.2461 17.1482 21.4258 17.0594C21.613 16.9559 21.7928 16.601 21.7928 16.3348C21.7928 16.076 21.8452 16.1426 19.4789 13.3403C17.5319 11.0259 17.3447 10.8485 16.9253 10.8485C16.8579 10.8485 16.6932 10.9224 16.5659 11.0112Z" fill="#D1D5DB"/>
</g>
<defs>
<clipPath id="clip0_174_144">
<rect width="34" height="30" fill="white" transform="translate(0 0.000244141)"/>
</clipPath>
</defs>
</svg>
