<svg width="12" height="7" viewBox="0 0 12 7" fill="none" xmlns="http://www.w3.org/2000/svg">
<path d="M5.99961 6.65937C5.90378 6.65937 5.8159 6.64341 5.73607 6.61145C5.65619 6.57954 5.57631 6.52362 5.49648 6.44374L0.752735 1.69999C0.608985 1.55624 0.537109 1.38854 0.537109 1.19687C0.537109 1.0052 0.608985 0.837494 0.752735 0.693744C0.896485 0.549994 1.06419 0.478119 1.25586 0.478119C1.44753 0.478119 1.61523 0.549994 1.75898 0.693744L5.99961 4.93437L10.2402 0.693744C10.384 0.549994 10.5517 0.478119 10.7434 0.478119C10.935 0.478119 11.1027 0.549994 11.2465 0.693744C11.3902 0.837494 11.4621 1.0052 11.4621 1.19687C11.4621 1.38854 11.3902 1.55624 11.2465 1.69999L6.50273 6.44374C6.42286 6.52362 6.34298 6.57954 6.26315 6.61145C6.18327 6.64341 6.09544 6.65937 5.99961 6.65937Z" fill="#003566"/>
</svg>
