<svg width="24" height="24" viewBox="0 0 24 24" fill="none" xmlns="http://www.w3.org/2000/svg">
<g clip-path="url(#clip0_174_76)">
<path d="M12.0001 23.0577C10.452 23.0577 9.00527 22.7674 7.65993 22.1869C6.3146 21.6064 5.14431 20.8185 4.14911 19.8233C3.15392 18.8281 2.37067 17.6532 1.79935 16.2987C1.22804 14.9441 0.942383 13.4928 0.942383 11.9447C0.942383 10.3966 1.22804 8.95454 1.79935 7.61839C2.37067 6.28223 3.15392 5.11659 4.14911 4.12139C5.14431 3.1262 6.3146 2.34756 7.65993 1.78546C9.00527 1.22335 10.452 0.942307 12.0001 0.942307C13.5482 0.942307 14.9949 1.22335 16.3402 1.78546C17.6856 2.34756 18.8558 3.1262 19.851 4.12139C20.8462 5.11659 21.6295 6.28223 22.2008 7.61839C22.7721 8.95454 23.0578 10.3966 23.0578 11.9447C23.0578 13.4928 22.7721 14.9441 22.2008 16.2987C21.6295 17.6532 20.8462 18.8281 19.851 19.8233C18.8558 20.8185 17.6856 21.6064 16.3402 22.1869C14.9949 22.7674 13.5482 23.0577 12.0001 23.0577ZM12.0001 21.4543C12.6451 20.7909 13.1842 20.0306 13.6173 19.1737C14.0503 18.3167 14.4051 17.2985 14.6816 16.119H9.34623C9.60426 17.2248 9.94981 18.2199 10.3829 19.1046C10.816 19.9892 11.355 20.7725 12.0001 21.4543ZM9.65032 21.1226C9.1896 20.4223 8.79334 19.6667 8.46161 18.8558C8.12988 18.0449 7.85344 17.1326 7.63229 16.119H3.48565C4.18597 17.4275 4.99685 18.4549 5.91834 19.2013C6.83984 19.9477 8.08383 20.5881 9.65032 21.1226ZM14.3775 21.095C15.7044 20.6711 16.8977 20.0352 17.9574 19.1875C19.0171 18.3398 19.8694 17.3169 20.5145 16.119H16.3955C16.1559 17.1142 15.8749 18.0172 15.5524 18.8281C15.2299 19.639 14.8382 20.3946 14.3775 21.095ZM2.93277 14.4603H7.3282C7.27291 13.9627 7.24068 13.5158 7.23145 13.1196C7.22221 12.7233 7.21762 12.3317 7.21762 11.9447C7.21762 11.484 7.22686 11.0739 7.24527 10.7145C7.26368 10.3552 7.30056 9.95433 7.35584 9.51202H2.93277C2.80376 9.95433 2.71622 10.3506 2.67015 10.7007C2.62408 11.0509 2.60104 11.4655 2.60104 11.9447C2.60104 12.4239 2.62408 12.8524 2.67015 13.2302C2.71622 13.608 2.80376 14.018 2.93277 14.4603ZM9.04214 14.4603H14.9857C15.0594 13.889 15.1055 13.4237 15.1239 13.0643C15.1423 12.7049 15.1515 12.3317 15.1515 11.9447C15.1515 11.5761 15.1423 11.2214 15.1239 10.8804C15.1055 10.5394 15.0594 10.0833 14.9857 9.51202H9.04214C8.96844 10.0833 8.92233 10.5394 8.90392 10.8804C8.88551 11.2214 8.87628 11.5761 8.87628 11.9447C8.87628 12.3317 8.88551 12.7049 8.90392 13.0643C8.92233 13.4237 8.96844 13.889 9.04214 14.4603ZM16.6443 14.4603H21.0674C21.1964 14.018 21.2839 13.608 21.33 13.2302C21.3761 12.8524 21.3991 12.4239 21.3991 11.9447C21.3991 11.4655 21.3761 11.0509 21.33 10.7007C21.2839 10.3506 21.1964 9.95433 21.0674 9.51202H16.672C16.7272 10.1571 16.7641 10.65 16.7825 10.991C16.8009 11.3319 16.8102 11.6499 16.8102 11.9447C16.8102 12.3501 16.7963 12.7326 16.7687 13.0919C16.7411 13.4513 16.6996 13.9075 16.6443 14.4603ZM16.3679 7.85336H20.5145C19.9063 6.58173 19.0724 5.52202 18.0127 4.67428C16.953 3.82652 15.732 3.22756 14.3498 2.8774C14.8106 3.55929 15.2022 4.29649 15.5247 5.08894C15.8472 5.88139 16.1283 6.80288 16.3679 7.85336ZM9.34623 7.85336H14.7092C14.5065 6.87658 14.1656 5.93209 13.6864 5.01983C13.2072 4.10757 12.6451 3.30128 12.0001 2.60096C11.4103 3.09856 10.9127 3.7528 10.5073 4.5637C10.1019 5.37462 9.71484 6.47115 9.34623 7.85336ZM3.48565 7.85336H7.65993C7.86267 6.85817 8.12065 5.96897 8.43397 5.1857C8.74729 4.40242 9.14349 3.64222 9.62267 2.90505C8.24046 3.25521 7.03335 3.84495 6.00128 4.67428C4.96921 5.5036 4.13069 6.56332 3.48565 7.85336Z" fill="#003566"/>
</g>
<defs>
<clipPath id="clip0_174_76">
<rect width="24" height="24" fill="white"/>
</clipPath>
</defs>
</svg>
