<svg width="72" height="72" viewBox="0 0 72 72" fill="none" xmlns="http://www.w3.org/2000/svg">
<path d="M0.627539 9.18808C-0.0123047 9.54483 0.0123047 9.27419 0 19.1892C0 26.1027 0.0369141 28.5261 0.147656 28.7598C0.418359 29.3503 0.775195 29.4364 3.13769 29.4364H5.29101V30.1745C5.29101 30.5927 5.36484 31.0725 5.46328 31.2693C5.64785 31.6138 6.11543 31.8967 6.53379 31.8967C6.65683 31.8967 7.875 31.3431 9.22851 30.6665L11.6895 29.4364H15.5039V30.5066C15.5039 31.7245 15.6885 33.1392 15.8853 33.6558C16.0699 34.111 16.5867 34.357 17.325 34.357H17.9402L18.0018 37.0879C18.0633 40.151 18.2232 41.0244 18.9984 42.6851C19.7859 44.3458 20.6596 45.4284 22.4191 46.9415C23.0098 47.4458 23.342 47.8518 23.6127 48.4053C23.8219 48.8236 23.9572 49.2049 23.908 49.2419C23.8465 49.2911 20.7949 49.7216 17.1158 50.2137C12.9445 50.7672 10.1637 51.1855 9.74531 51.3331C7.83808 52.0097 6.37383 53.6458 5.84473 55.7002C5.68476 56.3152 5.66016 57.57 5.66016 63.7207C5.66016 69.1088 5.69707 71.0894 5.80781 71.3231C6.12773 72.0366 4.66347 71.9997 29.0391 71.9997C53.4146 71.9997 51.9504 72.0366 52.2703 71.3231C52.381 71.0894 52.418 69.1088 52.418 63.7207C52.418 55.7863 52.418 55.7125 51.7043 54.2855C51.2244 53.3137 49.957 52.0712 48.9603 51.6037C47.976 51.1363 47.533 51.0625 40.1133 50.0907C36.9018 49.6724 34.2316 49.2911 34.1701 49.2419C34.1209 49.2049 34.2562 48.8236 34.4654 48.393C34.773 47.7903 35.0807 47.4335 35.9789 46.6585C36.9264 45.8466 37.7508 44.9609 38.1199 44.3581C38.1814 44.272 38.8951 44.2105 40.2363 44.1736C42.1682 44.1367 42.3035 44.1244 42.968 43.7923C43.7555 43.3986 44.3338 42.8082 44.7152 41.9963C44.9613 41.4673 44.9736 41.1844 45.0105 37.8875L45.0475 34.357H51.3105L53.7715 35.5872C55.125 36.2637 56.3432 36.8173 56.4662 36.8173C56.8846 36.8173 57.3521 36.5344 57.5367 36.1899C57.6351 35.9931 57.709 35.5133 57.709 35.0951V34.357H59.8623C61.265 34.357 62.114 34.3078 62.3232 34.2094C63.0123 33.8895 63 34.1479 63 24.5158C63 14.8837 63.0123 15.142 62.3232 14.8222C62.0771 14.7115 58.841 14.6746 49.0834 14.6746C35.0437 14.6746 35.659 14.65 35.3391 15.3511C35.2529 15.5357 35.1914 16.2615 35.1914 17.1349V18.5988L34.5269 18.3035C32.8043 17.5408 30.8478 17.1349 28.8914 17.1349H27.8086V13.5674C27.8086 9.72935 27.7717 9.49562 27.181 9.18808C26.7258 8.95435 19.3922 8.92975 18.8877 9.16348C18.2848 9.43411 18.051 10.2091 18.3832 10.8488C18.6908 11.427 18.9615 11.4762 22.2838 11.4762H25.3477L25.323 14.5639L25.2861 17.6515L24.3141 18.0083C20.6473 19.3368 17.7064 22.2769 16.3775 25.9428L16.0207 26.9146L11.0127 27.0376L9.38847 27.8741L7.75195 28.6983V28.3416C7.75195 28.1324 7.69043 27.8249 7.6043 27.6527C7.33359 27.0622 6.97676 26.9761 4.61426 26.9761H2.46094V11.4762H5.53711C8.89629 11.4762 9.16699 11.427 9.45 10.7996C9.73301 10.1722 9.53613 9.48332 8.97011 9.18808C8.49023 8.94205 1.07051 8.94205 0.627539 9.18808ZM60.539 31.8967H58.3857C56.0232 31.8967 55.6664 31.9828 55.3957 32.5733C55.3096 32.7455 55.248 33.053 55.248 33.2622V33.6189L51.8027 31.8967H42.6111L42.5373 30.3221C42.4635 28.6245 42.2543 27.4805 41.7744 26.1027C41.1346 24.2575 39.8549 22.3015 38.3906 20.8991L37.6523 20.1979V17.1349H60.539V31.8967ZM31.8076 19.9519C34.8346 20.7392 37.5047 22.892 38.8951 25.6844C39.7318 27.382 40.0148 28.5261 40.0394 30.359L40.0518 31.8352H37.7754C35.5359 31.8352 35.4867 31.8352 34.7976 31.4907C33.6533 30.9372 32.9396 29.9039 32.7797 28.6122C32.6443 27.4682 32.2506 26.9761 31.4631 26.9761C31.3031 26.9761 30.491 27.4189 29.642 27.9602C26.9473 29.707 24.6094 30.7281 21.89 31.3308C20.3643 31.663 18.2478 31.9336 18.051 31.8106C17.8541 31.6876 18.0387 28.9935 18.3217 27.8987C19.4045 23.7531 22.7021 20.6777 27.0211 19.7797C28.19 19.5337 30.5156 19.6198 31.8076 19.9519ZM30.9586 30.9987C31.4385 31.9951 32.7059 33.2376 33.7148 33.705C34.7115 34.1725 35.5482 34.357 36.7295 34.357H37.6523V36.5713C37.6523 38.9086 37.4801 40.2002 37.0371 41.209L36.8033 41.7379H32.792C28.4361 41.7379 28.2516 41.7625 27.9562 42.4145C27.7717 42.8205 27.7717 43.1157 27.9562 43.5216C28.2393 44.149 28.51 44.1982 31.8937 44.1982H35.0068L34.0348 45.0839C32.5828 46.4125 32.066 47.3105 31.5369 49.451C31.4631 49.7462 31.1309 50.1153 30.2818 50.841C29.642 51.3823 29.076 51.8252 29.0391 51.8252C28.9898 51.8252 28.4361 51.37 27.7963 50.8287C26.9842 50.1153 26.615 49.7093 26.5412 49.4387C25.9506 47.1629 25.5076 46.4371 23.6865 44.7518C21.0287 42.3038 20.4258 40.7661 20.4258 36.4483V34.1233L20.8934 34.0372C24.2156 33.459 27.4641 32.2534 29.9865 30.6788C30.3064 30.4697 30.5894 30.2975 30.5894 30.2975C30.6018 30.2975 30.7617 30.6173 30.9586 30.9987ZM42.5742 36.8173H40.1133V34.357H42.5742V36.8173ZM42.5742 40.0157C42.5742 41.4181 42.1928 41.7379 40.5316 41.7379C39.5719 41.7379 39.4857 41.7133 39.5596 41.5165C39.6088 41.4058 39.7441 40.8522 39.8549 40.2986L40.0518 39.2776H42.5742V40.0157ZM26.0613 52.5756C26.6273 53.0553 27.0703 53.4982 27.0457 53.5474C27.0211 53.5966 26.4797 54.0887 25.8398 54.6299L24.6832 55.6263L24.031 53.818C23.6742 52.8216 23.3789 51.9728 23.3789 51.9236C23.3789 51.8252 23.8465 51.7514 24.5478 51.7268C24.9908 51.7022 25.1385 51.7883 26.0613 52.5756ZM34.6623 51.8744C34.6992 51.9113 34.4285 52.7601 34.0594 53.7811L33.3949 55.6263L32.2383 54.6299C31.5984 54.0887 31.057 53.5966 31.0324 53.5474C31.0078 53.4859 31.4508 53.0553 32.0168 52.5756L33.0381 51.6899L33.8256 51.7514C34.2562 51.7883 34.6377 51.8498 34.6623 51.8744ZM21.6809 54.593C23.0344 58.3819 23.1205 58.5787 23.5019 58.7755C24.191 59.1323 24.5232 59.0216 25.6799 58.0251C26.4551 57.3363 26.6519 57.2255 26.5412 57.5454C26.3935 57.9021 25.8398 60.9037 25.6553 62.2815C25.5445 63.0565 25.4338 65.0124 25.3846 66.6239L25.3107 69.5517L22.6037 69.4779L20.475 61.1743C19.2937 56.6105 18.3586 52.7847 18.3709 52.6863C18.3955 52.551 18.6785 52.4649 19.4414 52.3664C20.0197 52.2926 20.5734 52.2311 20.6719 52.2434C20.7949 52.2557 21.1271 53.043 21.6809 54.593ZM38.6367 52.3664C39.3873 52.4649 39.6826 52.5633 39.7072 52.6863C39.7195 52.7847 38.7844 56.6105 37.6031 61.1743L35.4744 69.4779L32.7674 69.5517L32.6935 66.6854C32.6074 63.241 32.2383 60.2271 31.5492 57.5454C31.4631 57.1886 31.5 57.2132 32.3121 57.9267C33.5303 58.997 33.8379 59.12 34.5023 58.8124C34.9084 58.6279 35.1176 58.1851 36.2373 55.0359C36.7418 53.5843 37.1971 52.3541 37.234 52.3049C37.3078 52.1696 37.2955 52.1696 38.6367 52.3664ZM17.891 61.0144C19.023 65.4676 19.9705 69.2072 20.0074 69.3179C20.0689 69.5271 19.7244 69.5394 14.0889 69.5394H8.10879L8.18262 56.1922L8.52715 55.491C8.90859 54.7037 9.52383 54.1133 10.299 53.7688C10.7912 53.5474 14.3596 52.9692 15.3932 52.9446L15.8361 52.9323L17.891 61.0144ZM45.0844 53.2398C46.3148 53.4121 47.4838 53.6458 47.7791 53.7688C48.5543 54.1133 49.1695 54.7037 49.551 55.491L49.8955 56.1922L49.9693 69.5394H43.9892C38.3537 69.5394 38.0092 69.5271 38.0707 69.3179C38.1076 69.2072 39.0551 65.4676 40.1871 61.0144L42.242 52.9323H42.5742C42.7588 52.9323 43.8785 53.0676 45.0844 53.2398ZM29.3836 59.1077C29.9988 62.0108 30.2695 64.668 30.2695 67.7064V69.5394H27.8086V67.7064C27.8086 65.6398 27.9809 63.2656 28.2393 61.5434C28.4976 59.9073 28.9406 57.8529 29.0391 57.8529C29.0883 57.8529 29.2359 58.4188 29.3836 59.1077Z" fill="url(#paint0_linear_238_50)"/>
<path d="M43.5709 22.2277C42.5004 22.8182 42.9556 24.5158 44.1738 24.5158C44.8014 24.5158 45.4043 23.913 45.4043 23.2979C45.4043 22.3753 44.383 21.7726 43.5709 22.2277Z" fill="url(#paint1_linear_238_50)"/>
<path d="M48.4928 22.2277C47.4222 22.8182 47.8775 24.5158 49.0957 24.5158C49.7232 24.5158 50.3262 23.913 50.3262 23.2979C50.3262 22.3753 49.3049 21.7726 48.4928 22.2277Z" fill="url(#paint2_linear_238_50)"/>
<path d="M53.4146 22.2277C52.3441 22.8182 52.7994 24.5158 54.0176 24.5158C54.6451 24.5158 55.248 23.913 55.248 23.2979C55.248 22.3753 54.2267 21.7726 53.4146 22.2277Z" fill="url(#paint3_linear_238_50)"/>
<path d="M24.7447 35.7594C23.6742 36.3499 24.1295 38.0475 25.3476 38.0475C25.9752 38.0475 26.5781 37.4447 26.5781 36.8296C26.5781 35.907 25.5568 35.3042 24.7447 35.7594Z" fill="url(#paint4_linear_238_50)"/>
<path d="M32.1275 35.7594C31.057 36.3499 31.5123 38.0475 32.7305 38.0475C33.358 38.0475 33.9609 37.4447 33.9609 36.8296C33.9609 35.907 32.9396 35.3042 32.1275 35.7594Z" fill="url(#paint5_linear_238_50)"/>
<path d="M13.3014 9.18809C12.2309 9.77856 12.6861 11.4762 13.9043 11.4762C14.5318 11.4762 15.1348 10.8734 15.1348 10.2583C15.1348 9.33571 14.1135 8.73294 13.3014 9.18809Z" fill="url(#paint6_linear_238_50)"/>
<path d="M8.37949 17.3071C7.30898 17.8976 7.76426 19.5952 8.98242 19.5952C9.60996 19.5952 10.2129 18.9924 10.2129 18.3773C10.2129 17.4547 9.1916 16.8519 8.37949 17.3071Z" fill="url(#paint7_linear_238_50)"/>
<path d="M13.3014 17.3071C12.2309 17.8976 12.6861 19.5952 13.9043 19.5952C14.5318 19.5952 15.1348 18.9924 15.1348 18.3773C15.1348 17.4547 14.1135 16.8519 13.3014 17.3071Z" fill="url(#paint8_linear_238_50)"/>
<path d="M18.2232 17.3071C17.1527 17.8976 17.608 19.5952 18.8262 19.5952C19.4537 19.5952 20.0566 18.9924 20.0566 18.3773C20.0566 17.4547 19.0353 16.8519 18.2232 17.3071Z" fill="url(#paint9_linear_238_50)"/>
<defs>
<linearGradient id="paint0_linear_238_50" x1="15.3" y1="71.9997" x2="71.0865" y2="19.3489" gradientUnits="userSpaceOnUse">
<stop stop-color="#00B4BD"/>
<stop offset="1" stop-color="#003566"/>
</linearGradient>
<linearGradient id="paint1_linear_238_50" x1="15.3" y1="71.9997" x2="71.0865" y2="19.3489" gradientUnits="userSpaceOnUse">
<stop stop-color="#00B4BD"/>
<stop offset="1" stop-color="#003566"/>
</linearGradient>
<linearGradient id="paint2_linear_238_50" x1="15.3" y1="71.9997" x2="71.0865" y2="19.3489" gradientUnits="userSpaceOnUse">
<stop stop-color="#00B4BD"/>
<stop offset="1" stop-color="#003566"/>
</linearGradient>
<linearGradient id="paint3_linear_238_50" x1="15.3" y1="71.9997" x2="71.0865" y2="19.3489" gradientUnits="userSpaceOnUse">
<stop stop-color="#00B4BD"/>
<stop offset="1" stop-color="#003566"/>
</linearGradient>
<linearGradient id="paint4_linear_238_50" x1="15.3" y1="71.9997" x2="71.0865" y2="19.3489" gradientUnits="userSpaceOnUse">
<stop stop-color="#00B4BD"/>
<stop offset="1" stop-color="#003566"/>
</linearGradient>
<linearGradient id="paint5_linear_238_50" x1="15.3" y1="71.9997" x2="71.0865" y2="19.3489" gradientUnits="userSpaceOnUse">
<stop stop-color="#00B4BD"/>
<stop offset="1" stop-color="#003566"/>
</linearGradient>
<linearGradient id="paint6_linear_238_50" x1="15.3" y1="71.9997" x2="71.0865" y2="19.3489" gradientUnits="userSpaceOnUse">
<stop stop-color="#00B4BD"/>
<stop offset="1" stop-color="#003566"/>
</linearGradient>
<linearGradient id="paint7_linear_238_50" x1="15.3" y1="71.9997" x2="71.0865" y2="19.3489" gradientUnits="userSpaceOnUse">
<stop stop-color="#00B4BD"/>
<stop offset="1" stop-color="#003566"/>
</linearGradient>
<linearGradient id="paint8_linear_238_50" x1="15.3" y1="71.9997" x2="71.0865" y2="19.3489" gradientUnits="userSpaceOnUse">
<stop stop-color="#00B4BD"/>
<stop offset="1" stop-color="#003566"/>
</linearGradient>
<linearGradient id="paint9_linear_238_50" x1="15.3" y1="71.9997" x2="71.0865" y2="19.3489" gradientUnits="userSpaceOnUse">
<stop stop-color="#00B4BD"/>
<stop offset="1" stop-color="#003566"/>
</linearGradient>
</defs>
</svg>
