<svg width="201" height="46" viewBox="0 0 201 46" fill="none" xmlns="http://www.w3.org/2000/svg">
<path d="M2.156 20V0.399999H5.74V16.808H13.804V20H2.156ZM25.0972 20.392C23.2305 20.392 21.5692 19.972 20.1132 19.132C18.6572 18.2827 17.5139 17.0973 16.6832 15.576C15.8525 14.0453 15.4372 12.2533 15.4372 10.2C15.4372 8.14667 15.8525 6.35933 16.6832 4.838C17.5139 3.30733 18.6572 2.122 20.1132 1.282C21.5692 0.432666 23.2305 0.0079987 25.0972 0.0079987C26.9639 0.0079987 28.6252 0.432666 30.0812 1.282C31.5372 2.122 32.6805 3.30733 33.5112 4.838C34.3419 6.35933 34.7572 8.14667 34.7572 10.2C34.7572 12.2533 34.3419 14.0453 33.5112 15.576C32.6805 17.0973 31.5372 18.2827 30.0812 19.132C28.6252 19.972 26.9639 20.392 25.0972 20.392ZM25.0972 16.92C26.4039 16.92 27.4959 16.6307 28.3732 16.052C29.2505 15.4733 29.9085 14.68 30.3472 13.672C30.7859 12.6547 31.0052 11.4973 31.0052 10.2C31.0052 8.90267 30.7859 7.75 30.3472 6.742C29.9085 5.72467 29.2505 4.92667 28.3732 4.348C27.4959 3.76933 26.4039 3.48 25.0972 3.48C23.7905 3.48 22.6985 3.76933 21.8212 4.348C20.9439 4.92667 20.2859 5.72467 19.8472 6.742C19.4085 7.75 19.1892 8.90267 19.1892 10.2C19.1892 11.4973 19.4085 12.6547 19.8472 13.672C20.2859 14.68 20.9439 15.4733 21.8212 16.052C22.6985 16.6307 23.7905 16.92 25.0972 16.92ZM38.7266 20V0.399999H45.8946C47.248 0.399999 48.4286 0.614665 49.4366 1.044C50.454 1.47333 51.2426 2.12667 51.8026 3.004C52.3626 3.88133 52.6426 4.992 52.6426 6.336C52.6426 7.77333 52.3346 8.91667 51.7186 9.766C51.112 10.606 50.3093 11.2733 49.3106 11.768L53.7346 20H49.7306L45.9506 12.72C45.9226 12.72 45.8993 12.72 45.8806 12.72C45.862 12.72 45.8386 12.72 45.8106 12.72H42.3106V20H38.7266ZM42.3106 9.724H44.9426C46.4173 9.724 47.444 9.42533 48.0226 8.828C48.6013 8.22133 48.8906 7.456 48.8906 6.532C48.8906 5.552 48.606 4.78667 48.0366 4.236C47.4673 3.676 46.4826 3.396 45.0826 3.396H42.3106V9.724ZM65.97 20.392C63.982 20.392 62.232 19.972 60.72 19.132C59.208 18.2827 58.0273 17.0973 57.178 15.576C56.338 14.0453 55.918 12.2533 55.918 10.2C55.918 8.14667 56.352 6.35933 57.22 4.838C58.0973 3.30733 59.3013 2.122 60.832 1.282C62.3626 0.432666 64.1126 0.0079987 66.082 0.0079987C67.118 0.0079987 68.0653 0.119999 68.924 0.343999C69.7826 0.558666 70.5246 0.829333 71.15 1.156L70.758 4.572C70.0486 4.24533 69.316 3.97933 68.56 3.774C67.8133 3.55933 66.978 3.452 66.054 3.452C64.682 3.452 63.534 3.74133 62.61 4.32C61.6953 4.89867 61.0046 5.69667 60.538 6.714C60.0713 7.73133 59.838 8.89333 59.838 10.2C59.838 11.5067 60.0666 12.6687 60.524 13.686C60.9813 14.7033 61.6626 15.5013 62.568 16.08C63.4826 16.6587 64.6166 16.948 65.97 16.948C66.9126 16.948 67.7573 16.8453 68.504 16.64C69.2506 16.4347 70.002 16.164 70.758 15.828L71.15 19.244C70.4126 19.5893 69.6006 19.8647 68.714 20.07C67.8366 20.2847 66.922 20.392 65.97 20.392ZM85.6925 15.352H77.4885V12.216H85.6925V15.352ZM81.1285 3.9H82.0525L76.3965 20H72.9245L79.8965 0.399999H83.2845L90.2565 20H86.7845L81.1285 3.9Z" fill="#003566"/>
<path d="M100.466 20V0.399999H104.05V16.808H112.114V20H100.466ZM115.306 20V0.399999H118.89V20H115.306ZM124.048 20V0.399999H127.576L135.948 13.056V0.399999H139.532V20H136.592L127.632 6.56V20H124.048ZM153.393 20.392C151.321 20.392 149.547 19.972 148.073 19.132C146.598 18.2827 145.469 17.0927 144.685 15.562C143.901 14.0313 143.509 12.2347 143.509 10.172C143.509 8.128 143.943 6.34533 144.811 4.824C145.688 3.29333 146.897 2.108 148.437 1.268C149.977 0.427999 151.75 0.0079987 153.757 0.0079987C154.793 0.0079987 155.782 0.115332 156.725 0.329999C157.677 0.544665 158.489 0.819999 159.161 1.156L158.769 4.572C158.069 4.24533 157.294 3.97933 156.445 3.774C155.605 3.55933 154.709 3.452 153.757 3.452C152.301 3.452 151.106 3.746 150.173 4.334C149.239 4.91267 148.549 5.706 148.101 6.714C147.653 7.71267 147.429 8.84667 147.429 10.116C147.429 11.4507 147.653 12.6313 148.101 13.658C148.558 14.6847 149.239 15.492 150.145 16.08C151.05 16.6587 152.179 16.948 153.533 16.948C153.943 16.948 154.373 16.92 154.821 16.864C155.278 16.808 155.745 16.7333 156.221 16.64V13.14H153.533V10.172H159.805V18.908C159.123 19.3093 158.218 19.6593 157.089 19.958C155.969 20.2473 154.737 20.392 153.393 20.392ZM172.014 20.392C170.176 20.392 168.654 20.028 167.45 19.3C166.256 18.572 165.364 17.55 164.776 16.234C164.188 14.918 163.894 13.3733 163.894 11.6V0.399999H167.478V10.676C167.478 11.6093 167.539 12.4633 167.66 13.238C167.782 14.0033 168.001 14.666 168.318 15.226C168.645 15.7767 169.107 16.2013 169.704 16.5C170.302 16.7987 171.072 16.948 172.014 16.948C172.957 16.948 173.727 16.7987 174.324 16.5C174.922 16.2013 175.379 15.7767 175.696 15.226C176.023 14.666 176.247 14.0033 176.368 13.238C176.49 12.4633 176.55 11.6093 176.55 10.676V0.399999H180.134V11.6C180.134 13.3733 179.84 14.918 179.252 16.234C178.664 17.55 177.768 18.572 176.564 19.3C175.37 20.028 173.853 20.392 172.014 20.392ZM195.287 15.352H187.083V12.216H195.287V15.352ZM190.723 3.9H191.647L185.991 20H182.519L189.491 0.399999H192.879L199.851 20H196.379L190.723 3.9Z" fill="#00B4BD"/>
<path d="M3.723 41V30.562H0.255V29.1H8.806V30.562H5.338V41H3.723ZM9.08331 41V32.67H10.3413L10.5283 34.047C10.9533 33.52 11.3585 33.1318 11.7438 32.8825C12.1348 32.6275 12.5513 32.5 12.9933 32.5C13.135 32.5 13.2653 32.517 13.3843 32.551L13.2313 34.234C13.1576 34.217 13.0783 34.2057 12.9933 34.2C12.914 34.1887 12.8233 34.183 12.7213 34.183C12.2793 34.183 11.8713 34.2822 11.4973 34.4805C11.129 34.6732 10.8683 34.8857 10.7153 35.118V41H9.08331ZM16.76 41.17C16.2443 41.17 15.7938 41.0652 15.4085 40.8555C15.0232 40.6458 14.7228 40.3597 14.5075 39.997C14.2978 39.6343 14.193 39.2207 14.193 38.756C14.193 38.2857 14.295 37.8833 14.499 37.549C14.7087 37.209 14.9863 36.9285 15.332 36.7075C15.6833 36.4808 16.0743 36.3023 16.505 36.172C16.9357 36.036 17.3805 35.9397 17.8395 35.883C18.3042 35.8207 18.749 35.7867 19.174 35.781C19.174 34.9877 19.0182 34.4692 18.7065 34.2255C18.3948 33.9818 17.9443 33.86 17.355 33.86C17.0433 33.86 16.709 33.9082 16.352 34.0045C16.0007 34.1008 15.604 34.302 15.162 34.608L14.941 33.367C15.2753 33.112 15.6918 32.9052 16.1905 32.7465C16.6892 32.5822 17.2133 32.5 17.763 32.5C18.4657 32.5 19.0323 32.6247 19.463 32.874C19.8937 33.1177 20.2082 33.5313 20.4065 34.115C20.6048 34.6987 20.704 35.492 20.704 36.495V38.195C20.704 38.5917 20.721 38.9203 20.755 39.181C20.7947 39.436 20.8797 39.6287 21.01 39.759C21.146 39.8837 21.3613 39.946 21.656 39.946H21.809L21.571 41.17H21.452C20.959 41.17 20.5765 41.1218 20.3045 41.0255C20.0382 40.9292 19.8342 40.7903 19.6925 40.609C19.5508 40.4277 19.4233 40.2067 19.31 39.946C18.9983 40.3087 18.63 40.6033 18.205 40.83C17.78 41.0567 17.2983 41.17 16.76 41.17ZM17.049 39.946C17.457 39.946 17.8508 39.844 18.2305 39.64C18.6158 39.436 18.9303 39.164 19.174 38.824V36.835C18.3637 36.8633 17.7063 36.9427 17.202 37.073C16.7033 37.2033 16.3378 37.3988 16.1055 37.6595C15.8732 37.9202 15.757 38.2573 15.757 38.671C15.757 39.1187 15.876 39.4445 16.114 39.6485C16.3577 39.8468 16.6693 39.946 17.049 39.946ZM26.764 41.17C26.0556 41.17 25.4153 40.9773 24.843 40.592C24.2706 40.2067 23.8145 39.6882 23.4745 39.0365C23.1401 38.3848 22.973 37.6567 22.973 36.852C22.973 36.087 23.126 35.373 23.432 34.71C23.7436 34.047 24.1828 33.5143 24.7495 33.112C25.3161 32.704 25.9876 32.5 26.764 32.5C27.3193 32.5 27.8548 32.6218 28.3705 32.8655C28.8918 33.1035 29.314 33.503 29.637 34.064L29.314 34.285V28.25H30.844V41H29.484L29.195 39.232L29.586 39.504C29.3423 40.0537 28.9598 40.4702 28.4385 40.7535C27.9171 41.0312 27.359 41.17 26.764 41.17ZM27.036 39.81C27.4213 39.81 27.801 39.7108 28.175 39.5125C28.5546 39.3142 28.8663 38.9997 29.11 38.569C29.3593 38.1327 29.484 37.5603 29.484 36.852C29.484 36.1947 29.3593 35.645 29.11 35.203C28.8663 34.7553 28.5546 34.421 28.175 34.2C27.801 33.9733 27.4213 33.86 27.036 33.86C26.5146 33.86 26.067 33.9903 25.693 34.251C25.319 34.5117 25.0328 34.8687 24.8345 35.322C24.6361 35.7697 24.537 36.2797 24.537 36.852C24.537 37.3903 24.6361 37.8833 24.8345 38.331C25.0328 38.7787 25.319 39.1385 25.693 39.4105C26.067 39.6768 26.5146 39.81 27.036 39.81ZM36.3637 41.17C35.712 41.17 35.1567 41.0397 34.6977 40.779C34.2387 40.5127 33.8873 40.1103 33.6437 39.572C33.4057 39.0337 33.2867 38.348 33.2867 37.515V32.67H34.8167V37.09C34.8167 37.974 34.9668 38.6483 35.2672 39.113C35.5732 39.5777 36.069 39.81 36.7547 39.81C37.225 39.81 37.6613 39.6967 38.0637 39.47C38.466 39.2433 38.7437 38.8807 38.8967 38.382L38.6757 39.215V32.67H40.2057V41H38.8457L38.5397 39.368L38.9477 39.64C38.67 40.1557 38.33 40.541 37.9277 40.796C37.531 41.0453 37.0097 41.17 36.3637 41.17ZM46.5877 41.17C45.647 41.17 44.8565 40.9802 44.2162 40.6005C43.5815 40.2152 43.0999 39.6995 42.7712 39.0535C42.4482 38.4018 42.2867 37.6793 42.2867 36.886C42.2867 36.0587 42.4425 35.3135 42.7542 34.6505C43.0715 33.9875 43.556 33.4633 44.2077 33.078C44.8594 32.6927 45.6924 32.5 46.7067 32.5C47.143 32.5 47.5539 32.5453 47.9392 32.636C48.3302 32.721 48.6787 32.84 48.9847 32.993L48.7467 34.336C48.435 34.1887 48.1035 34.0725 47.7522 33.9875C47.4065 33.9025 47.0467 33.86 46.6727 33.86C45.7547 33.86 45.0549 34.1207 44.5732 34.642C44.0915 35.1633 43.8507 35.8887 43.8507 36.818C43.8507 37.7247 44.0802 38.4528 44.5392 39.0025C44.9982 39.5522 45.698 39.827 46.6387 39.827C47.024 39.827 47.3924 39.7817 47.7437 39.691C48.1007 39.6003 48.4407 39.4757 48.7637 39.317L48.9677 40.541C48.741 40.6997 48.4095 40.8442 47.9732 40.9745C47.5369 41.1048 47.075 41.17 46.5877 41.17ZM53.8314 41.17C53.3044 41.17 52.8823 41.0737 52.5649 40.881C52.2476 40.6883 52.0153 40.4418 51.8679 40.1415C51.7263 39.8355 51.6554 39.5153 51.6554 39.181V33.86H50.2274L50.3634 32.67H51.6554V30.613L53.1854 30.46V32.67H55.3784V33.86H53.1854V38.246C53.1854 38.7787 53.2166 39.164 53.2789 39.402C53.3413 39.64 53.4943 39.7902 53.7379 39.8525C53.9873 39.9148 54.3868 39.946 54.9364 39.946H55.3274L55.2084 41.17H53.8314ZM57.162 41V32.67H58.692V41H57.162ZM57.162 30.8V29.1H58.692V30.8H57.162ZM64.8785 41.17C64.0058 41.17 63.2607 40.9773 62.643 40.592C62.031 40.201 61.5607 39.6797 61.232 39.028C60.909 38.3707 60.7475 37.6397 60.7475 36.835C60.7475 36.0303 60.909 35.3022 61.232 34.6505C61.5607 33.9932 62.031 33.4718 62.643 33.0865C63.2607 32.6955 64.0058 32.5 64.8785 32.5C65.7455 32.5 66.4878 32.6955 67.1055 33.0865C67.7232 33.4718 68.1935 33.9932 68.5165 34.6505C68.8452 35.3022 69.0095 36.0303 69.0095 36.835C69.0095 37.6397 68.8452 38.3707 68.5165 39.028C68.1935 39.6797 67.7232 40.201 67.1055 40.592C66.4878 40.9773 65.7455 41.17 64.8785 41.17ZM64.8785 39.81C65.7058 39.81 66.3405 39.5493 66.7825 39.028C67.2245 38.501 67.4455 37.77 67.4455 36.835C67.4455 35.9 67.2245 35.1718 66.7825 34.6505C66.3405 34.1235 65.7058 33.86 64.8785 33.86C64.0568 33.86 63.4222 34.1235 62.9745 34.6505C62.5325 35.1718 62.3115 35.9 62.3115 36.835C62.3115 37.77 62.5325 38.501 62.9745 39.028C63.4222 39.5493 64.0568 39.81 64.8785 39.81ZM71.0632 41V32.67H72.2532L72.5592 34.268L71.9642 34.013C72.5252 33.3897 73.072 32.9817 73.6047 32.789C74.143 32.5963 74.6672 32.5 75.1772 32.5C76.3955 32.5 77.2654 32.8513 77.7867 33.554C78.3137 34.2567 78.5772 35.2087 78.5772 36.41V41H77.0472V36.41C77.0472 35.526 76.8829 34.88 76.5542 34.472C76.2255 34.064 75.6645 33.86 74.8712 33.86C74.3102 33.86 73.7945 33.9847 73.3242 34.234C72.8595 34.4777 72.5535 34.8687 72.4062 35.407L72.5932 34.472V41H71.0632ZM85.2616 36.444V34.982H90.5316V36.444H85.2616ZM97.6281 41V29.1H99.2431V41H97.6281ZM101.965 41V32.67H103.155L103.461 34.268L102.866 34.013C103.427 33.3897 103.974 32.9817 104.506 32.789C105.045 32.5963 105.569 32.5 106.079 32.5C107.297 32.5 108.167 32.8513 108.688 33.554C109.215 34.2567 109.479 35.2087 109.479 36.41V41H107.949V36.41C107.949 35.526 107.784 34.88 107.456 34.472C107.127 34.064 106.566 33.86 105.773 33.86C105.212 33.86 104.696 33.9847 104.226 34.234C103.761 34.4777 103.455 34.8687 103.308 35.407L103.495 34.472V41H101.965ZM114.677 41.17C114.15 41.17 113.728 41.0737 113.41 40.881C113.093 40.6883 112.861 40.4418 112.713 40.1415C112.572 39.8355 112.501 39.5153 112.501 39.181V33.86H111.073L111.209 32.67H112.501V30.613L114.031 30.46V32.67H116.224V33.86H114.031V38.246C114.031 38.7787 114.062 39.164 114.124 39.402C114.187 39.64 114.34 39.7902 114.583 39.8525C114.833 39.9148 115.232 39.946 115.782 39.946H116.173L116.054 41.17H114.677ZM121.936 41.17C120.956 41.17 120.131 40.9688 119.463 40.5665C118.794 40.1642 118.287 39.6315 117.941 38.9685C117.601 38.2998 117.431 37.566 117.431 36.767C117.431 35.9907 117.59 35.2795 117.907 34.6335C118.23 33.9875 118.695 33.4718 119.301 33.0865C119.913 32.6955 120.65 32.5 121.511 32.5C122.202 32.5 122.817 32.6388 123.356 32.9165C123.9 33.1885 124.325 33.588 124.631 34.115C124.942 34.6363 125.098 35.271 125.098 36.019C125.098 36.138 125.092 36.2683 125.081 36.41C125.075 36.546 125.058 36.6877 125.03 36.835H118.995C119.069 37.6057 119.253 38.2063 119.548 38.637C119.842 39.0677 120.213 39.3708 120.661 39.5465C121.109 39.7222 121.596 39.81 122.123 39.81C122.508 39.81 122.911 39.7703 123.33 39.691C123.749 39.6117 124.146 39.487 124.52 39.317L124.724 40.524C124.401 40.6657 124.007 40.8102 123.543 40.9575C123.078 41.0992 122.542 41.17 121.936 41.17ZM119.131 35.781H123.517C123.517 35.39 123.443 35.05 123.296 34.761C123.149 34.472 122.925 34.251 122.625 34.098C122.324 33.9393 121.942 33.86 121.477 33.86C120.797 33.86 120.273 34.03 119.905 34.37C119.542 34.7043 119.284 35.1747 119.131 35.781ZM127.116 41V32.67H128.374L128.561 34.047C128.986 33.52 129.391 33.1318 129.777 32.8825C130.168 32.6275 130.584 32.5 131.026 32.5C131.168 32.5 131.298 32.517 131.417 32.551L131.264 34.234C131.191 34.217 131.111 34.2057 131.026 34.2C130.947 34.1887 130.856 34.183 130.754 34.183C130.312 34.183 129.904 34.2822 129.53 34.4805C129.162 34.6732 128.901 34.8857 128.748 35.118V41H127.116ZM132.971 45.114V32.67H134.161L134.433 34.574L134.008 34.268C134.36 33.724 134.793 33.2933 135.309 32.976C135.824 32.6587 136.456 32.5 137.204 32.5C137.964 32.5 138.615 32.6927 139.159 33.078C139.703 33.4633 140.12 33.9847 140.409 34.642C140.698 35.2937 140.842 36.0247 140.842 36.835C140.842 37.6453 140.706 38.3792 140.434 39.0365C140.162 39.6882 139.757 40.2067 139.219 40.592C138.68 40.9773 138.009 41.17 137.204 41.17C136.541 41.17 135.941 41.034 135.402 40.762C134.87 40.4843 134.484 40.0707 134.246 39.521L134.501 39.215V45.114H132.971ZM136.915 39.81C137.658 39.81 138.236 39.5493 138.649 39.028C139.069 38.501 139.278 37.77 139.278 36.835C139.278 35.9 139.069 35.1718 138.649 34.6505C138.236 34.1235 137.658 33.86 136.915 33.86C136.456 33.86 136.037 33.9705 135.657 34.1915C135.283 34.4068 134.983 34.7355 134.756 35.1775C134.53 35.6138 134.416 36.1663 134.416 36.835C134.416 37.532 134.53 38.0987 134.756 38.535C134.983 38.9713 135.283 39.2943 135.657 39.504C136.037 39.708 136.456 39.81 136.915 39.81ZM142.91 41V32.67H144.168L144.355 34.047C144.78 33.52 145.185 33.1318 145.571 32.8825C145.962 32.6275 146.378 32.5 146.82 32.5C146.962 32.5 147.092 32.517 147.211 32.551L147.058 34.234C146.984 34.217 146.905 34.2057 146.82 34.2C146.741 34.1887 146.65 34.183 146.548 34.183C146.106 34.183 145.698 34.2822 145.324 34.4805C144.956 34.6732 144.695 34.8857 144.542 35.118V41H142.91ZM152.544 41.17C151.564 41.17 150.739 40.9688 150.071 40.5665C149.402 40.1642 148.895 39.6315 148.549 38.9685C148.209 38.2998 148.039 37.566 148.039 36.767C148.039 35.9907 148.198 35.2795 148.515 34.6335C148.838 33.9875 149.303 33.4718 149.909 33.0865C150.521 32.6955 151.258 32.5 152.119 32.5C152.811 32.5 153.425 32.6388 153.964 32.9165C154.508 33.1885 154.933 33.588 155.239 34.115C155.55 34.6363 155.706 35.271 155.706 36.019C155.706 36.138 155.701 36.2683 155.689 36.41C155.684 36.546 155.667 36.6877 155.638 36.835H149.603C149.677 37.6057 149.861 38.2063 150.156 38.637C150.45 39.0677 150.822 39.3708 151.269 39.5465C151.717 39.7222 152.204 39.81 152.731 39.81C153.117 39.81 153.519 39.7703 153.938 39.691C154.358 39.6117 154.754 39.487 155.128 39.317L155.332 40.524C155.009 40.6657 154.615 40.8102 154.151 40.9575C153.686 41.0992 153.151 41.17 152.544 41.17ZM149.739 35.781H154.125C154.125 35.39 154.052 35.05 153.904 34.761C153.757 34.472 153.533 34.251 153.233 34.098C152.932 33.9393 152.55 33.86 152.085 33.86C151.405 33.86 150.881 34.03 150.513 34.37C150.15 34.7043 149.892 35.1747 149.739 35.781ZM150.657 31.208V30.171L153.836 28.301V29.967L150.657 31.208ZM160.597 41.17C160.07 41.17 159.648 41.0737 159.331 40.881C159.014 40.6883 158.781 40.4418 158.634 40.1415C158.492 39.8355 158.421 39.5153 158.421 39.181V33.86H156.993L157.129 32.67H158.421V30.613L159.951 30.46V32.67H162.144V33.86H159.951V38.246C159.951 38.7787 159.983 39.164 160.045 39.402C160.107 39.64 160.26 39.7902 160.504 39.8525C160.753 39.9148 161.153 39.946 161.702 39.946H162.093L161.974 41.17H160.597ZM165.866 41.17C165.35 41.17 164.9 41.0652 164.514 40.8555C164.129 40.6458 163.829 40.3597 163.613 39.997C163.404 39.6343 163.299 39.2207 163.299 38.756C163.299 38.2857 163.401 37.8833 163.605 37.549C163.815 37.209 164.092 36.9285 164.438 36.7075C164.789 36.4808 165.18 36.3023 165.611 36.172C166.042 36.036 166.486 35.9397 166.945 35.883C167.41 35.8207 167.855 35.7867 168.28 35.781C168.28 34.9877 168.124 34.4692 167.812 34.2255C167.501 33.9818 167.05 33.86 166.461 33.86C166.149 33.86 165.815 33.9082 165.458 34.0045C165.107 34.1008 164.71 34.302 164.268 34.608L164.047 33.367C164.381 33.112 164.798 32.9052 165.296 32.7465C165.795 32.5822 166.319 32.5 166.869 32.5C167.572 32.5 168.138 32.6247 168.569 32.874C169 33.1177 169.314 33.5313 169.512 34.115C169.711 34.6987 169.81 35.492 169.81 36.495V38.195C169.81 38.5917 169.827 38.9203 169.861 39.181C169.901 39.436 169.986 39.6287 170.116 39.759C170.252 39.8837 170.467 39.946 170.762 39.946H170.915L170.677 41.17H170.558C170.065 41.17 169.682 41.1218 169.41 41.0255C169.144 40.9292 168.94 40.7903 168.798 40.609C168.657 40.4277 168.529 40.2067 168.416 39.946C168.104 40.3087 167.736 40.6033 167.311 40.83C166.886 41.0567 166.404 41.17 165.866 41.17ZM166.155 39.946C166.563 39.946 166.957 39.844 167.336 39.64C167.722 39.436 168.036 39.164 168.28 38.824V36.835C167.47 36.8633 166.812 36.9427 166.308 37.073C165.809 37.2033 165.444 37.3988 165.211 37.6595C164.979 37.9202 164.863 38.2573 164.863 38.671C164.863 39.1187 164.982 39.4445 165.22 39.6485C165.464 39.8468 165.775 39.946 166.155 39.946ZM175.279 41.17C174.752 41.17 174.33 41.0737 174.012 40.881C173.695 40.6883 173.463 40.4418 173.315 40.1415C173.174 39.8355 173.103 39.5153 173.103 39.181V33.86H171.675L171.811 32.67H173.103V30.613L174.633 30.46V32.67H176.826V33.86H174.633V38.246C174.633 38.7787 174.664 39.164 174.726 39.402C174.789 39.64 174.942 39.7902 175.185 39.8525C175.435 39.9148 175.834 39.946 176.384 39.946H176.775L176.656 41.17H175.279ZM178.609 41V32.67H180.139V41H178.609ZM178.609 30.8V29.1H180.139V30.8H178.609ZM186.326 41.17C185.453 41.17 184.708 40.9773 184.09 40.592C183.478 40.201 183.008 39.6797 182.679 39.028C182.356 38.3707 182.195 37.6397 182.195 36.835C182.195 36.0303 182.356 35.3022 182.679 34.6505C183.008 33.9932 183.478 33.4718 184.09 33.0865C184.708 32.6955 185.453 32.5 186.326 32.5C187.193 32.5 187.935 32.6955 188.553 33.0865C189.171 33.4718 189.641 33.9932 189.964 34.6505C190.293 35.3022 190.457 36.0303 190.457 36.835C190.457 37.6397 190.293 38.3707 189.964 39.028C189.641 39.6797 189.171 40.201 188.553 40.592C187.935 40.9773 187.193 41.17 186.326 41.17ZM186.326 39.81C187.153 39.81 187.788 39.5493 188.23 39.028C188.672 38.501 188.893 37.77 188.893 36.835C188.893 35.9 188.672 35.1718 188.23 34.6505C187.788 34.1235 187.153 33.86 186.326 33.86C185.504 33.86 184.87 34.1235 184.422 34.6505C183.98 35.1718 183.759 35.9 183.759 36.835C183.759 37.77 183.98 38.501 184.422 39.028C184.87 39.5493 185.504 39.81 186.326 39.81ZM192.511 41V32.67H193.701L194.007 34.268L193.412 34.013C193.973 33.3897 194.519 32.9817 195.052 32.789C195.59 32.5963 196.115 32.5 196.625 32.5C197.843 32.5 198.713 32.8513 199.234 33.554C199.761 34.2567 200.025 35.2087 200.025 36.41V41H198.495V36.41C198.495 35.526 198.33 34.88 198.002 34.472C197.673 34.064 197.112 33.86 196.319 33.86C195.758 33.86 195.242 33.9847 194.772 34.234C194.307 34.4777 194.001 34.8687 193.854 35.407L194.041 34.472V41H192.511Z" fill="#161616"/>
</svg>
